%TF.GenerationSoftware,KiCad,Pcbnew,9.0.7*%
%TF.CreationDate,2026-04-18T23:16:48-07:00*%
%TF.ProjectId,Light_Jacket_rev0_2,4c696768-745f-44a6-9163-6b65745f7265,rev?*%
%TF.SameCoordinates,Original*%
%TF.FileFunction,Profile,NP*%
%FSLAX46Y46*%
G04 Gerber Fmt 4.6, Leading zero omitted, Abs format (unit mm)*
G04 Created by KiCad (PCBNEW 9.0.7) date 2026-04-18 23:16:48*
%MOMM*%
%LPD*%
G01*
G04 APERTURE LIST*
%TA.AperFunction,Profile*%
%ADD10C,0.050000*%
%TD*%
%TA.AperFunction,Profile*%
%ADD11C,0.000000*%
%TD*%
G04 APERTURE END LIST*
D10*
X193500000Y-51150000D02*
X181500000Y-51150000D01*
X194500000Y-52150000D02*
X194500000Y-113192861D01*
X193500000Y-114192861D02*
X181500000Y-114192861D01*
X181500000Y-114192861D02*
X181500000Y-114500000D01*
X181500000Y-51150000D02*
X181500000Y-50500000D01*
X126500000Y-50500000D02*
G75*
G02*
X129500000Y-47500000I3000000J0D01*
G01*
X178500000Y-117500000D02*
X129500000Y-117500000D01*
X193500000Y-51150000D02*
G75*
G02*
X194500007Y-52150000I7J-1000000D01*
G01*
X194500000Y-113192861D02*
G75*
G02*
X193500000Y-114192811I-999900J-50D01*
G01*
X129500000Y-117500000D02*
G75*
G02*
X126500000Y-114500000I0J3000000D01*
G01*
X178500000Y-47500000D02*
G75*
G02*
X181500000Y-50500000I0J-3000000D01*
G01*
X181500000Y-114500000D02*
G75*
G02*
X178500000Y-117500000I-3000000J0D01*
G01*
X126500000Y-114500000D02*
X126500000Y-50500000D01*
X129500000Y-47500000D02*
X178500000Y-47500000D01*
D11*
%TA.AperFunction,Profile*%
%TO.C,USB4*%
G36*
X186243506Y-75826295D02*
G01*
X186328286Y-75875242D01*
X186397508Y-75944464D01*
X186446455Y-76029244D01*
X186471792Y-76123803D01*
X186471792Y-76221697D01*
X186446455Y-76316256D01*
X186397508Y-76401036D01*
X186328286Y-76470258D01*
X186243506Y-76519205D01*
X186148947Y-76544542D01*
X186051053Y-76544542D01*
X185956494Y-76519205D01*
X185871714Y-76470258D01*
X185802492Y-76401036D01*
X185753545Y-76316256D01*
X185728208Y-76221697D01*
X185728208Y-76123803D01*
X185753545Y-76029244D01*
X185802492Y-75944464D01*
X185871714Y-75875242D01*
X185956494Y-75826295D01*
X186051053Y-75800958D01*
X186148947Y-75800958D01*
X186243506Y-75826295D01*
G37*
%TD.AperFunction*%
%TA.AperFunction,Profile*%
G36*
X192043506Y-75826295D02*
G01*
X192128286Y-75875242D01*
X192197508Y-75944464D01*
X192246455Y-76029244D01*
X192271792Y-76123803D01*
X192271792Y-76221697D01*
X192246455Y-76316256D01*
X192197508Y-76401036D01*
X192128286Y-76470258D01*
X192043506Y-76519205D01*
X191948947Y-76544542D01*
X191851053Y-76544542D01*
X191756494Y-76519205D01*
X191671714Y-76470258D01*
X191602492Y-76401036D01*
X191553545Y-76316256D01*
X191528208Y-76221697D01*
X191528208Y-76123803D01*
X191553545Y-76029244D01*
X191602492Y-75944464D01*
X191671714Y-75875242D01*
X191756494Y-75826295D01*
X191851053Y-75800958D01*
X191948947Y-75800958D01*
X192043506Y-75826295D01*
G37*
%TD.AperFunction*%
%TA.AperFunction,Profile*%
G36*
X186243506Y-91572045D02*
G01*
X186328286Y-91620992D01*
X186397508Y-91690214D01*
X186446455Y-91774994D01*
X186471792Y-91869553D01*
X186471792Y-91967447D01*
X186446455Y-92062006D01*
X186397508Y-92146786D01*
X186328286Y-92216008D01*
X186243506Y-92264955D01*
X186148947Y-92290292D01*
X186051053Y-92290292D01*
X185956494Y-92264955D01*
X185871714Y-92216008D01*
X185802492Y-92146786D01*
X185753545Y-92062006D01*
X185728208Y-91967447D01*
X185728208Y-91869553D01*
X185753545Y-91774994D01*
X185802492Y-91690214D01*
X185871714Y-91620992D01*
X185956494Y-91572045D01*
X186051053Y-91546708D01*
X186148947Y-91546708D01*
X186243506Y-91572045D01*
G37*
%TD.AperFunction*%
%TA.AperFunction,Profile*%
G36*
X192043506Y-91572045D02*
G01*
X192128286Y-91620992D01*
X192197508Y-91690214D01*
X192246455Y-91774994D01*
X192271792Y-91869553D01*
X192271792Y-91967447D01*
X192246455Y-92062006D01*
X192197508Y-92146786D01*
X192128286Y-92216008D01*
X192043506Y-92264955D01*
X191948947Y-92290292D01*
X191851053Y-92290292D01*
X191756494Y-92264955D01*
X191671714Y-92216008D01*
X191602492Y-92146786D01*
X191553545Y-92062006D01*
X191528208Y-91967447D01*
X191528208Y-91869553D01*
X191553545Y-91774994D01*
X191602492Y-91690214D01*
X191671714Y-91620992D01*
X191756494Y-91572045D01*
X191851053Y-91546708D01*
X191948947Y-91546708D01*
X192043506Y-91572045D01*
G37*
%TD.AperFunction*%
%TA.AperFunction,Profile*%
G36*
X186243506Y-107369156D02*
G01*
X186328286Y-107418103D01*
X186397508Y-107487325D01*
X186446455Y-107572105D01*
X186471792Y-107666664D01*
X186471792Y-107764558D01*
X186446455Y-107859117D01*
X186397508Y-107943897D01*
X186328286Y-108013119D01*
X186243506Y-108062066D01*
X186148947Y-108087403D01*
X186051053Y-108087403D01*
X185956494Y-108062066D01*
X185871714Y-108013119D01*
X185802492Y-107943897D01*
X185753545Y-107859117D01*
X185728208Y-107764558D01*
X185728208Y-107666664D01*
X185753545Y-107572105D01*
X185802492Y-107487325D01*
X185871714Y-107418103D01*
X185956494Y-107369156D01*
X186051053Y-107343819D01*
X186148947Y-107343819D01*
X186243506Y-107369156D01*
G37*
%TD.AperFunction*%
%TA.AperFunction,Profile*%
G36*
X192043506Y-107369156D02*
G01*
X192128286Y-107418103D01*
X192197508Y-107487325D01*
X192246455Y-107572105D01*
X192271792Y-107666664D01*
X192271792Y-107764558D01*
X192246455Y-107859117D01*
X192197508Y-107943897D01*
X192128286Y-108013119D01*
X192043506Y-108062066D01*
X191948947Y-108087403D01*
X191851053Y-108087403D01*
X191756494Y-108062066D01*
X191671714Y-108013119D01*
X191602492Y-107943897D01*
X191553545Y-107859117D01*
X191528208Y-107764558D01*
X191528208Y-107666664D01*
X191553545Y-107572105D01*
X191602492Y-107487325D01*
X191671714Y-107418103D01*
X191756494Y-107369156D01*
X191851053Y-107343819D01*
X191948947Y-107343819D01*
X192043506Y-107369156D01*
G37*
%TD.AperFunction*%
%TA.AperFunction,Profile*%
%TO.C,USB5*%
G36*
X132846756Y-62603545D02*
G01*
X132931536Y-62652492D01*
X133000758Y-62721714D01*
X133049705Y-62806494D01*
X133075042Y-62901053D01*
X133075042Y-62998947D01*
X133049705Y-63093506D01*
X133000758Y-63178286D01*
X132931536Y-63247508D01*
X132846756Y-63296455D01*
X132752197Y-63321792D01*
X132654303Y-63321792D01*
X132559744Y-63296455D01*
X132474964Y-63247508D01*
X132405742Y-63178286D01*
X132356795Y-63093506D01*
X132331458Y-62998947D01*
X132331458Y-62901053D01*
X132356795Y-62806494D01*
X132405742Y-62721714D01*
X132474964Y-62652492D01*
X132559744Y-62603545D01*
X132654303Y-62578208D01*
X132752197Y-62578208D01*
X132846756Y-62603545D01*
G37*
%TD.AperFunction*%
%TA.AperFunction,Profile*%
G36*
X132846756Y-68403545D02*
G01*
X132931536Y-68452492D01*
X133000758Y-68521714D01*
X133049705Y-68606494D01*
X133075042Y-68701053D01*
X133075042Y-68798947D01*
X133049705Y-68893506D01*
X133000758Y-68978286D01*
X132931536Y-69047508D01*
X132846756Y-69096455D01*
X132752197Y-69121792D01*
X132654303Y-69121792D01*
X132559744Y-69096455D01*
X132474964Y-69047508D01*
X132405742Y-68978286D01*
X132356795Y-68893506D01*
X132331458Y-68798947D01*
X132331458Y-68701053D01*
X132356795Y-68606494D01*
X132405742Y-68521714D01*
X132474964Y-68452492D01*
X132559744Y-68403545D01*
X132654303Y-68378208D01*
X132752197Y-68378208D01*
X132846756Y-68403545D01*
G37*
%TD.AperFunction*%
%TA.AperFunction,Profile*%
%TO.C,USB1*%
G36*
X164743506Y-110950295D02*
G01*
X164828286Y-110999242D01*
X164897508Y-111068464D01*
X164946455Y-111153244D01*
X164971792Y-111247803D01*
X164971792Y-111345697D01*
X164946455Y-111440256D01*
X164897508Y-111525036D01*
X164828286Y-111594258D01*
X164743506Y-111643205D01*
X164648947Y-111668542D01*
X164551053Y-111668542D01*
X164456494Y-111643205D01*
X164371714Y-111594258D01*
X164302492Y-111525036D01*
X164253545Y-111440256D01*
X164228208Y-111345697D01*
X164228208Y-111247803D01*
X164253545Y-111153244D01*
X164302492Y-111068464D01*
X164371714Y-110999242D01*
X164456494Y-110950295D01*
X164551053Y-110924958D01*
X164648947Y-110924958D01*
X164743506Y-110950295D01*
G37*
%TD.AperFunction*%
%TA.AperFunction,Profile*%
G36*
X170543506Y-110950295D02*
G01*
X170628286Y-110999242D01*
X170697508Y-111068464D01*
X170746455Y-111153244D01*
X170771792Y-111247803D01*
X170771792Y-111345697D01*
X170746455Y-111440256D01*
X170697508Y-111525036D01*
X170628286Y-111594258D01*
X170543506Y-111643205D01*
X170448947Y-111668542D01*
X170351053Y-111668542D01*
X170256494Y-111643205D01*
X170171714Y-111594258D01*
X170102492Y-111525036D01*
X170053545Y-111440256D01*
X170028208Y-111345697D01*
X170028208Y-111247803D01*
X170053545Y-111153244D01*
X170102492Y-111068464D01*
X170171714Y-110999242D01*
X170256494Y-110950295D01*
X170351053Y-110924958D01*
X170448947Y-110924958D01*
X170543506Y-110950295D01*
G37*
%TD.AperFunction*%
%TD*%
M02*
