%TF.GenerationSoftware,KiCad,Pcbnew,9.0.7*%
%TF.CreationDate,2026-04-19T16:57:14-07:00*%
%TF.ProjectId,Light_Jacket_rev0_2,4c696768-745f-44a6-9163-6b65745f7265,rev?*%
%TF.SameCoordinates,Original*%
%TF.FileFunction,Paste,Top*%
%TF.FilePolarity,Positive*%
%FSLAX46Y46*%
G04 Gerber Fmt 4.6, Leading zero omitted, Abs format (unit mm)*
G04 Created by KiCad (PCBNEW 9.0.7) date 2026-04-19 16:57:14*
%MOMM*%
%LPD*%
G01*
G04 APERTURE LIST*
G04 Aperture macros list*
%AMFreePoly0*
4,1,41,1.150000,0.845907,1.233315,0.845907,1.396742,0.813399,1.550687,0.749633,1.689234,0.657059,1.807059,0.539234,1.899633,0.400687,1.963399,0.246742,1.995907,0.083315,1.995907,-0.083315,1.963399,-0.246742,1.899633,-0.400687,1.807059,-0.539234,1.689234,-0.657059,1.550687,-0.749633,1.396742,-0.813399,1.233315,-0.845907,1.150000,-0.845907,1.150000,-0.850000,-1.150000,-0.850000,
-1.150000,-0.845907,-1.233315,-0.845907,-1.396742,-0.813399,-1.550687,-0.749633,-1.689234,-0.657059,-1.807059,-0.539234,-1.899633,-0.400687,-1.963399,-0.246742,-1.995907,-0.083315,-1.995907,0.083315,-1.963399,0.246742,-1.899633,0.400687,-1.807059,0.539234,-1.689234,0.657059,-1.550687,0.749633,-1.396742,0.813399,-1.233315,0.845907,-1.150000,0.845907,-1.150000,0.850000,1.150000,0.850000,
1.150000,0.845907,1.150000,0.845907,$1*%
G04 Aperture macros list end*
%ADD10C,0.000000*%
%ADD11R,1.000000X0.900000*%
%ADD12R,0.570000X0.640000*%
%ADD13R,1.377000X1.132500*%
%ADD14R,0.800000X0.900000*%
%ADD15R,0.806500X0.864000*%
%ADD16R,1.800000X1.000000*%
%ADD17R,0.300000X1.300000*%
%ADD18R,0.532000X1.072000*%
%ADD19FreePoly0,90.000000*%
%ADD20R,0.864000X0.806500*%
%ADD21R,0.640000X0.570000*%
%ADD22R,0.900000X0.800000*%
%ADD23R,2.500000X1.100000*%
%ADD24R,2.340000X3.600000*%
%ADD25R,1.070000X0.532000*%
%ADD26R,1.300000X0.300000*%
%ADD27R,1.607500X2.376000*%
%ADD28R,0.900000X1.000000*%
%ADD29R,1.350000X1.410000*%
%ADD30R,1.406500X3.499000*%
%ADD31O,1.742000X0.364000*%
%ADD32R,1.500000X0.900000*%
%ADD33R,0.900000X1.500000*%
%ADD34R,0.900000X0.900000*%
%ADD35R,1.100000X1.300000*%
G04 APERTURE END LIST*
D10*
%TO.C,R1*%
G36*
X177632933Y-100792933D02*
G01*
X177632933Y-101942933D01*
X177582933Y-101992933D01*
X177172933Y-101997933D01*
X177172933Y-101547933D01*
X176722933Y-101547933D01*
X176722933Y-101987933D01*
X176302933Y-101992933D01*
X176252933Y-101942933D01*
X176252933Y-100792933D01*
X176302933Y-100742933D01*
X177582933Y-100742933D01*
X177632933Y-100792933D01*
G37*
G36*
X176722933Y-103337933D02*
G01*
X177172933Y-103337933D01*
X177172933Y-102897933D01*
X177582933Y-102892933D01*
X177632933Y-102942933D01*
X177632933Y-104092933D01*
X177582933Y-104142933D01*
X176302933Y-104142933D01*
X176252933Y-104092933D01*
X176252933Y-102942933D01*
X176302933Y-102892933D01*
X176722933Y-102892933D01*
X176722933Y-103337933D01*
G37*
%TO.C,R17*%
G36*
X146801500Y-76100000D02*
G01*
X146801500Y-76342000D01*
X146431500Y-76342000D01*
X146431500Y-76672000D01*
X146801500Y-76672000D01*
X146801500Y-76900000D01*
X146751500Y-76950000D01*
X145951500Y-76950000D01*
X145901500Y-76900000D01*
X145901500Y-76100000D01*
X145951500Y-76050000D01*
X146751500Y-76050000D01*
X146801500Y-76100000D01*
G37*
G36*
X148391500Y-76100000D02*
G01*
X148391500Y-76900000D01*
X148341500Y-76950000D01*
X147541500Y-76950000D01*
X147491500Y-76900000D01*
X147491500Y-76658000D01*
X147861500Y-76658000D01*
X147861500Y-76328000D01*
X147491500Y-76328000D01*
X147491500Y-76100000D01*
X147541500Y-76050000D01*
X148341500Y-76050000D01*
X148391500Y-76100000D01*
G37*
%TO.C,U11*%
G36*
X129755000Y-59200000D02*
G01*
X129755000Y-59442000D01*
X129385000Y-59442000D01*
X129385000Y-59772000D01*
X129755000Y-59772000D01*
X129755000Y-60000000D01*
X129705000Y-60050000D01*
X128905000Y-60050000D01*
X128855000Y-60000000D01*
X128855000Y-59200000D01*
X128905000Y-59150000D01*
X129705000Y-59150000D01*
X129755000Y-59200000D01*
G37*
G36*
X131345000Y-59200000D02*
G01*
X131345000Y-60000000D01*
X131295000Y-60050000D01*
X130495000Y-60050000D01*
X130445000Y-60000000D01*
X130445000Y-59758000D01*
X130815000Y-59758000D01*
X130815000Y-59428000D01*
X130445000Y-59428000D01*
X130445000Y-59200000D01*
X130495000Y-59150000D01*
X131295000Y-59150000D01*
X131345000Y-59200000D01*
G37*
%TO.C,USB4*%
G36*
X187400000Y-75554250D02*
G01*
X187100000Y-75554250D01*
X187100000Y-74254250D01*
X187400000Y-74254250D01*
X187400000Y-75554250D01*
G37*
G36*
X187900000Y-75554250D02*
G01*
X187600000Y-75554250D01*
X187600000Y-74254250D01*
X187900000Y-74254250D01*
X187900000Y-75554250D01*
G37*
G36*
X188400000Y-75554250D02*
G01*
X188100000Y-75554250D01*
X188100000Y-74254250D01*
X188400000Y-74254250D01*
X188400000Y-75554250D01*
G37*
G36*
X188900000Y-75554250D02*
G01*
X188600000Y-75554250D01*
X188600000Y-74254250D01*
X188900000Y-74254250D01*
X188900000Y-75554250D01*
G37*
G36*
X189400000Y-75554250D02*
G01*
X189100000Y-75554250D01*
X189100000Y-74254250D01*
X189400000Y-74254250D01*
X189400000Y-75554250D01*
G37*
G36*
X189900000Y-75554250D02*
G01*
X189600000Y-75554250D01*
X189600000Y-74254250D01*
X189900000Y-74254250D01*
X189900000Y-75554250D01*
G37*
G36*
X190399500Y-75554250D02*
G01*
X190099500Y-75554250D01*
X190099500Y-74254250D01*
X190399500Y-74254250D01*
X190399500Y-75554250D01*
G37*
G36*
X190900000Y-75554250D02*
G01*
X190600000Y-75554250D01*
X190600000Y-74254250D01*
X190900000Y-74254250D01*
X190900000Y-75554250D01*
G37*
G36*
X186100000Y-75554250D02*
G01*
X185800000Y-75554250D01*
X185500000Y-75554250D01*
X185500000Y-74254250D01*
X185800000Y-74254250D01*
X186100000Y-74254250D01*
X186100000Y-75554250D01*
G37*
G36*
X186900000Y-75554250D02*
G01*
X186600000Y-75554250D01*
X186300000Y-75554250D01*
X186300000Y-74254250D01*
X186600000Y-74254250D01*
X186900000Y-74254250D01*
X186900000Y-75554250D01*
G37*
G36*
X191700000Y-75553750D02*
G01*
X191400000Y-75553750D01*
X191100000Y-75553750D01*
X191100000Y-74254250D01*
X191400000Y-74254250D01*
X191700000Y-74254250D01*
X191700000Y-75553750D01*
G37*
G36*
X192500000Y-75553750D02*
G01*
X192200000Y-75553750D01*
X191900000Y-75553750D01*
X191900000Y-74254250D01*
X192200000Y-74254250D01*
X192500000Y-74254250D01*
X192500000Y-75553750D01*
G37*
G36*
X184719500Y-78954250D02*
G01*
X184749500Y-78957250D01*
X184779000Y-78961250D01*
X184808500Y-78967250D01*
X184837500Y-78974750D01*
X184866000Y-78983750D01*
X184894000Y-78993750D01*
X184921500Y-79005250D01*
X184948500Y-79018250D01*
X184975000Y-79032750D01*
X185000500Y-79048250D01*
X185025000Y-79065250D01*
X185049000Y-79083250D01*
X185072000Y-79102750D01*
X185094000Y-79122750D01*
X185114500Y-79144250D01*
X185134500Y-79166750D01*
X185153000Y-79190250D01*
X185170500Y-79214250D01*
X185187000Y-79239750D01*
X185202000Y-79265250D01*
X185215500Y-79292250D01*
X185228000Y-79319250D01*
X185238500Y-79347250D01*
X185248000Y-79375750D01*
X185256500Y-79404250D01*
X185263000Y-79433250D01*
X185268000Y-79462750D01*
X185272000Y-79492750D01*
X185274000Y-79522250D01*
X185275000Y-79552250D01*
X185275000Y-80152250D01*
X185274000Y-80182250D01*
X185272000Y-80212250D01*
X185268000Y-80241750D01*
X185263000Y-80271250D01*
X185256500Y-80300250D01*
X185248000Y-80329250D01*
X185238500Y-80357750D01*
X185228000Y-80385250D01*
X185215500Y-80412750D01*
X185202000Y-80439250D01*
X185187000Y-80465250D01*
X185170500Y-80490250D01*
X185153000Y-80514750D01*
X185134500Y-80538250D01*
X185114500Y-80560250D01*
X185094000Y-80581750D01*
X185072000Y-80602250D01*
X185049000Y-80621250D01*
X185025000Y-80639750D01*
X185000500Y-80656250D01*
X184975000Y-80671750D01*
X184948500Y-80686250D01*
X184921500Y-80699250D01*
X184894000Y-80710750D01*
X184866000Y-80721250D01*
X184837500Y-80729750D01*
X184808500Y-80737250D01*
X184779000Y-80743250D01*
X184749500Y-80747750D01*
X184719500Y-80750750D01*
X184690000Y-80752250D01*
X184660000Y-80752250D01*
X184630000Y-80750750D01*
X184600500Y-80747750D01*
X184570500Y-80743250D01*
X184541500Y-80737250D01*
X184512500Y-80729750D01*
X184484000Y-80721250D01*
X184455500Y-80710750D01*
X184428000Y-80699250D01*
X184401000Y-80686250D01*
X184375000Y-80671750D01*
X184349500Y-80656250D01*
X184324500Y-80639750D01*
X184301000Y-80621250D01*
X184278000Y-80602250D01*
X184256000Y-80581750D01*
X184235000Y-80560250D01*
X184215000Y-80538250D01*
X184196500Y-80514750D01*
X184179000Y-80490250D01*
X184163000Y-80465250D01*
X184148000Y-80439250D01*
X184134500Y-80412750D01*
X184122000Y-80385250D01*
X184111000Y-80357750D01*
X184101500Y-80329250D01*
X184093500Y-80300250D01*
X184087000Y-80271250D01*
X184081500Y-80241750D01*
X184078000Y-80212250D01*
X184075500Y-80182250D01*
X184075000Y-80152250D01*
X184075000Y-79552250D01*
X184075500Y-79522250D01*
X184078000Y-79492750D01*
X184081500Y-79462750D01*
X184087000Y-79433250D01*
X184093500Y-79404250D01*
X184101500Y-79375750D01*
X184111000Y-79347250D01*
X184122000Y-79319250D01*
X184134500Y-79292250D01*
X184148000Y-79265250D01*
X184163000Y-79239750D01*
X184179000Y-79214250D01*
X184196500Y-79190250D01*
X184215000Y-79166750D01*
X184235000Y-79144250D01*
X184256000Y-79122750D01*
X184278000Y-79102750D01*
X184301000Y-79083250D01*
X184324500Y-79065250D01*
X184349500Y-79048250D01*
X184375000Y-79032750D01*
X184401000Y-79018250D01*
X184428000Y-79005250D01*
X184455500Y-78993750D01*
X184484000Y-78983750D01*
X184512500Y-78974750D01*
X184541500Y-78967250D01*
X184570500Y-78961250D01*
X184600500Y-78957250D01*
X184630000Y-78954250D01*
X184660000Y-78952750D01*
X184690000Y-78952750D01*
X184719500Y-78954250D01*
G37*
G36*
X184719500Y-74674250D02*
G01*
X184749500Y-74677250D01*
X184779000Y-74681750D01*
X184808500Y-74687750D01*
X184837500Y-74694750D01*
X184866000Y-74703750D01*
X184894000Y-74713750D01*
X184921500Y-74725750D01*
X184948500Y-74738750D01*
X184975000Y-74752750D01*
X185000500Y-74768250D01*
X185025000Y-74785250D01*
X185049000Y-74803250D01*
X185072000Y-74822750D01*
X185094000Y-74842750D01*
X185114500Y-74864250D01*
X185134500Y-74886750D01*
X185153000Y-74910250D01*
X185170500Y-74934250D01*
X185187000Y-74959750D01*
X185202000Y-74985750D01*
X185215500Y-75012250D01*
X185228000Y-75039250D01*
X185238500Y-75067250D01*
X185248000Y-75095750D01*
X185256500Y-75124250D01*
X185263000Y-75153750D01*
X185268000Y-75183250D01*
X185272000Y-75212750D01*
X185274000Y-75242750D01*
X185275000Y-75272250D01*
X185275000Y-76072250D01*
X185274000Y-76102250D01*
X185272000Y-76132250D01*
X185268000Y-76161750D01*
X185263000Y-76191250D01*
X185256500Y-76220750D01*
X185248000Y-76249250D01*
X185238500Y-76277750D01*
X185228000Y-76305750D01*
X185215500Y-76332750D01*
X185202000Y-76359250D01*
X185187000Y-76385250D01*
X185170500Y-76410250D01*
X185153000Y-76434750D01*
X185134500Y-76458250D01*
X185114500Y-76480750D01*
X185094000Y-76501750D01*
X185072000Y-76522250D01*
X185049000Y-76541750D01*
X185025000Y-76559750D01*
X185000500Y-76576250D01*
X184975000Y-76592250D01*
X184948500Y-76606250D01*
X184921500Y-76619250D01*
X184894000Y-76630750D01*
X184866000Y-76641250D01*
X184837500Y-76650250D01*
X184808500Y-76657250D01*
X184779000Y-76663250D01*
X184749500Y-76667750D01*
X184719500Y-76670750D01*
X184690000Y-76672250D01*
X184660000Y-76672250D01*
X184630000Y-76670750D01*
X184600500Y-76667750D01*
X184570500Y-76663250D01*
X184541500Y-76657250D01*
X184512500Y-76650250D01*
X184484000Y-76641250D01*
X184455500Y-76630750D01*
X184428000Y-76619250D01*
X184401000Y-76606250D01*
X184375000Y-76592250D01*
X184349500Y-76576250D01*
X184324500Y-76559750D01*
X184301000Y-76541750D01*
X184278000Y-76522250D01*
X184256000Y-76501750D01*
X184235000Y-76480750D01*
X184215000Y-76458250D01*
X184196500Y-76434750D01*
X184179000Y-76410250D01*
X184163000Y-76385250D01*
X184148000Y-76359250D01*
X184134500Y-76332750D01*
X184122000Y-76305750D01*
X184111000Y-76277750D01*
X184101500Y-76249250D01*
X184093500Y-76220750D01*
X184087000Y-76191250D01*
X184081500Y-76161750D01*
X184078000Y-76132250D01*
X184075500Y-76102250D01*
X184075000Y-76072250D01*
X184075000Y-75272250D01*
X184075500Y-75242750D01*
X184078000Y-75212750D01*
X184081500Y-75183250D01*
X184087000Y-75153750D01*
X184093500Y-75124250D01*
X184101500Y-75095750D01*
X184111000Y-75067250D01*
X184122000Y-75039250D01*
X184134500Y-75012250D01*
X184148000Y-74985750D01*
X184163000Y-74959750D01*
X184179000Y-74934250D01*
X184196500Y-74910250D01*
X184215000Y-74886750D01*
X184235000Y-74864250D01*
X184256000Y-74842750D01*
X184278000Y-74822750D01*
X184301000Y-74803250D01*
X184324500Y-74785250D01*
X184349500Y-74768250D01*
X184375000Y-74752750D01*
X184401000Y-74738750D01*
X184428000Y-74725750D01*
X184455500Y-74713750D01*
X184484000Y-74703750D01*
X184512500Y-74694750D01*
X184541500Y-74687750D01*
X184570500Y-74681750D01*
X184600500Y-74677250D01*
X184630000Y-74674250D01*
X184660000Y-74672750D01*
X184690000Y-74672750D01*
X184719500Y-74674250D01*
G37*
G36*
X193370000Y-74674250D02*
G01*
X193399500Y-74677250D01*
X193429500Y-74681750D01*
X193458500Y-74687750D01*
X193487500Y-74694750D01*
X193516000Y-74703750D01*
X193544500Y-74713750D01*
X193572000Y-74725750D01*
X193599000Y-74738750D01*
X193625000Y-74752750D01*
X193650500Y-74768250D01*
X193675500Y-74785250D01*
X193699000Y-74803250D01*
X193722000Y-74822750D01*
X193744000Y-74842750D01*
X193765000Y-74864250D01*
X193785000Y-74886750D01*
X193803500Y-74910250D01*
X193821000Y-74934250D01*
X193837000Y-74959750D01*
X193852000Y-74985750D01*
X193865500Y-75012250D01*
X193878000Y-75039250D01*
X193889000Y-75067250D01*
X193898500Y-75095750D01*
X193906500Y-75124250D01*
X193913000Y-75153750D01*
X193918500Y-75183250D01*
X193922000Y-75212750D01*
X193924500Y-75242750D01*
X193925000Y-75272250D01*
X193925000Y-76072250D01*
X193924500Y-76102250D01*
X193922000Y-76132250D01*
X193918500Y-76161750D01*
X193913000Y-76191250D01*
X193906500Y-76220750D01*
X193898500Y-76249250D01*
X193889000Y-76277750D01*
X193878000Y-76305750D01*
X193865500Y-76332750D01*
X193852000Y-76359250D01*
X193837000Y-76385250D01*
X193821000Y-76410250D01*
X193803500Y-76434750D01*
X193785000Y-76458250D01*
X193765000Y-76480750D01*
X193744000Y-76501750D01*
X193722000Y-76522250D01*
X193699000Y-76541750D01*
X193675500Y-76559750D01*
X193650500Y-76576250D01*
X193625000Y-76592250D01*
X193599000Y-76606250D01*
X193572000Y-76619250D01*
X193544500Y-76630750D01*
X193516000Y-76641250D01*
X193487500Y-76650250D01*
X193458500Y-76657250D01*
X193429500Y-76663250D01*
X193399500Y-76667750D01*
X193370000Y-76670750D01*
X193340000Y-76672250D01*
X193310000Y-76672250D01*
X193280500Y-76670750D01*
X193250500Y-76667750D01*
X193221000Y-76663250D01*
X193191500Y-76657250D01*
X193162500Y-76650250D01*
X193134000Y-76641250D01*
X193106000Y-76630750D01*
X193078500Y-76619250D01*
X193051500Y-76606250D01*
X193025000Y-76592250D01*
X192999500Y-76576250D01*
X192975000Y-76559750D01*
X192951000Y-76541750D01*
X192928000Y-76522250D01*
X192906000Y-76501750D01*
X192885500Y-76480750D01*
X192865500Y-76458250D01*
X192847000Y-76434750D01*
X192829500Y-76410250D01*
X192813000Y-76385250D01*
X192798000Y-76359250D01*
X192784500Y-76332750D01*
X192772000Y-76305750D01*
X192761500Y-76277750D01*
X192752000Y-76249250D01*
X192743500Y-76220750D01*
X192737000Y-76191250D01*
X192732000Y-76161750D01*
X192728000Y-76132250D01*
X192726000Y-76102250D01*
X192725000Y-76072250D01*
X192725000Y-75272250D01*
X192726000Y-75242750D01*
X192728000Y-75212750D01*
X192732000Y-75183250D01*
X192737000Y-75153750D01*
X192743500Y-75124250D01*
X192752000Y-75095750D01*
X192761500Y-75067250D01*
X192772000Y-75039250D01*
X192784500Y-75012250D01*
X192798000Y-74985750D01*
X192813000Y-74959750D01*
X192829500Y-74934250D01*
X192847000Y-74910250D01*
X192865500Y-74886750D01*
X192885500Y-74864250D01*
X192906000Y-74842750D01*
X192928000Y-74822750D01*
X192951000Y-74803250D01*
X192975000Y-74785250D01*
X192999500Y-74768250D01*
X193025000Y-74752750D01*
X193051500Y-74738750D01*
X193078500Y-74725750D01*
X193106000Y-74713750D01*
X193134000Y-74703750D01*
X193162500Y-74694750D01*
X193191500Y-74687750D01*
X193221000Y-74681750D01*
X193250500Y-74677250D01*
X193280500Y-74674250D01*
X193310000Y-74672750D01*
X193340000Y-74672750D01*
X193370000Y-74674250D01*
G37*
G36*
X193370000Y-78954250D02*
G01*
X193399500Y-78957250D01*
X193429500Y-78961250D01*
X193458500Y-78967250D01*
X193487500Y-78974750D01*
X193516000Y-78983750D01*
X193544500Y-78993750D01*
X193572000Y-79005250D01*
X193599000Y-79018250D01*
X193625000Y-79032750D01*
X193650500Y-79048250D01*
X193675500Y-79065250D01*
X193699000Y-79083250D01*
X193722000Y-79102750D01*
X193744000Y-79122750D01*
X193765000Y-79144250D01*
X193785000Y-79166750D01*
X193803500Y-79190250D01*
X193821000Y-79214250D01*
X193837000Y-79239750D01*
X193852000Y-79265250D01*
X193865500Y-79292250D01*
X193878000Y-79319250D01*
X193889000Y-79347250D01*
X193898500Y-79375750D01*
X193906500Y-79404250D01*
X193913000Y-79433250D01*
X193918500Y-79462750D01*
X193922000Y-79492750D01*
X193924500Y-79522250D01*
X193925000Y-79552250D01*
X193925000Y-80152250D01*
X193924500Y-80182250D01*
X193922000Y-80212250D01*
X193918500Y-80241750D01*
X193913000Y-80271250D01*
X193906500Y-80300250D01*
X193898500Y-80329250D01*
X193889000Y-80357750D01*
X193878000Y-80385250D01*
X193865500Y-80412750D01*
X193852000Y-80439250D01*
X193837000Y-80465250D01*
X193821000Y-80490250D01*
X193803500Y-80514750D01*
X193785000Y-80538250D01*
X193765000Y-80560250D01*
X193744000Y-80581750D01*
X193722000Y-80602250D01*
X193699000Y-80621250D01*
X193675500Y-80639750D01*
X193650500Y-80656250D01*
X193625000Y-80671750D01*
X193599000Y-80686250D01*
X193572000Y-80699250D01*
X193544500Y-80710750D01*
X193516000Y-80721250D01*
X193487500Y-80729750D01*
X193458500Y-80737250D01*
X193429500Y-80743250D01*
X193399500Y-80747750D01*
X193370000Y-80750750D01*
X193340000Y-80752250D01*
X193310000Y-80752250D01*
X193280500Y-80750750D01*
X193250500Y-80747750D01*
X193221000Y-80743250D01*
X193191500Y-80737250D01*
X193162500Y-80729750D01*
X193134000Y-80721250D01*
X193106000Y-80710750D01*
X193078500Y-80699250D01*
X193051500Y-80686250D01*
X193025000Y-80671750D01*
X192999500Y-80656250D01*
X192975000Y-80639750D01*
X192951000Y-80621250D01*
X192928000Y-80602250D01*
X192906000Y-80581750D01*
X192885500Y-80560250D01*
X192865500Y-80538250D01*
X192847000Y-80514750D01*
X192829500Y-80490250D01*
X192813000Y-80465250D01*
X192798000Y-80439250D01*
X192784500Y-80412750D01*
X192772000Y-80385250D01*
X192761500Y-80357750D01*
X192752000Y-80329250D01*
X192743500Y-80300250D01*
X192737000Y-80271250D01*
X192732000Y-80241750D01*
X192728000Y-80212250D01*
X192726000Y-80182250D01*
X192725000Y-80152250D01*
X192725000Y-79552250D01*
X192726000Y-79522250D01*
X192728000Y-79492750D01*
X192732000Y-79462750D01*
X192737000Y-79433250D01*
X192743500Y-79404250D01*
X192752000Y-79375750D01*
X192761500Y-79347250D01*
X192772000Y-79319250D01*
X192784500Y-79292250D01*
X192798000Y-79265250D01*
X192813000Y-79239750D01*
X192829500Y-79214250D01*
X192847000Y-79190250D01*
X192865500Y-79166750D01*
X192885500Y-79144250D01*
X192906000Y-79122750D01*
X192928000Y-79102750D01*
X192951000Y-79083250D01*
X192975000Y-79065250D01*
X192999500Y-79048250D01*
X193025000Y-79032750D01*
X193051500Y-79018250D01*
X193078500Y-79005250D01*
X193106000Y-78993750D01*
X193134000Y-78983750D01*
X193162500Y-78974750D01*
X193191500Y-78967250D01*
X193221000Y-78961250D01*
X193250500Y-78957250D01*
X193280500Y-78954250D01*
X193310000Y-78952750D01*
X193340000Y-78952750D01*
X193370000Y-78954250D01*
G37*
%TO.C,U10*%
G36*
X146801500Y-74100000D02*
G01*
X146801500Y-74342000D01*
X146431500Y-74342000D01*
X146431500Y-74672000D01*
X146801500Y-74672000D01*
X146801500Y-74900000D01*
X146751500Y-74950000D01*
X145951500Y-74950000D01*
X145901500Y-74900000D01*
X145901500Y-74100000D01*
X145951500Y-74050000D01*
X146751500Y-74050000D01*
X146801500Y-74100000D01*
G37*
G36*
X148391500Y-74100000D02*
G01*
X148391500Y-74900000D01*
X148341500Y-74950000D01*
X147541500Y-74950000D01*
X147491500Y-74900000D01*
X147491500Y-74658000D01*
X147861500Y-74658000D01*
X147861500Y-74328000D01*
X147491500Y-74328000D01*
X147491500Y-74100000D01*
X147541500Y-74050000D01*
X148341500Y-74050000D01*
X148391500Y-74100000D01*
G37*
%TO.C,R7*%
G36*
X154108500Y-101663250D02*
G01*
X154108500Y-101905250D01*
X153738500Y-101905250D01*
X153738500Y-102235250D01*
X154108500Y-102235250D01*
X154108500Y-102463250D01*
X154058500Y-102513250D01*
X153258500Y-102513250D01*
X153208500Y-102463250D01*
X153208500Y-101663250D01*
X153258500Y-101613250D01*
X154058500Y-101613250D01*
X154108500Y-101663250D01*
G37*
G36*
X155698500Y-101663250D02*
G01*
X155698500Y-102463250D01*
X155648500Y-102513250D01*
X154848500Y-102513250D01*
X154798500Y-102463250D01*
X154798500Y-102221250D01*
X155168500Y-102221250D01*
X155168500Y-101891250D01*
X154798500Y-101891250D01*
X154798500Y-101663250D01*
X154848500Y-101613250D01*
X155648500Y-101613250D01*
X155698500Y-101663250D01*
G37*
%TO.C,USB4*%
G36*
X187400000Y-91300000D02*
G01*
X187100000Y-91300000D01*
X187100000Y-90000000D01*
X187400000Y-90000000D01*
X187400000Y-91300000D01*
G37*
G36*
X187900000Y-91300000D02*
G01*
X187600000Y-91300000D01*
X187600000Y-90000000D01*
X187900000Y-90000000D01*
X187900000Y-91300000D01*
G37*
G36*
X188400000Y-91300000D02*
G01*
X188100000Y-91300000D01*
X188100000Y-90000000D01*
X188400000Y-90000000D01*
X188400000Y-91300000D01*
G37*
G36*
X188900000Y-91300000D02*
G01*
X188600000Y-91300000D01*
X188600000Y-90000000D01*
X188900000Y-90000000D01*
X188900000Y-91300000D01*
G37*
G36*
X189400000Y-91300000D02*
G01*
X189100000Y-91300000D01*
X189100000Y-90000000D01*
X189400000Y-90000000D01*
X189400000Y-91300000D01*
G37*
G36*
X189900000Y-91300000D02*
G01*
X189600000Y-91300000D01*
X189600000Y-90000000D01*
X189900000Y-90000000D01*
X189900000Y-91300000D01*
G37*
G36*
X190399500Y-91300000D02*
G01*
X190099500Y-91300000D01*
X190099500Y-90000000D01*
X190399500Y-90000000D01*
X190399500Y-91300000D01*
G37*
G36*
X190900000Y-91300000D02*
G01*
X190600000Y-91300000D01*
X190600000Y-90000000D01*
X190900000Y-90000000D01*
X190900000Y-91300000D01*
G37*
G36*
X186100000Y-91300000D02*
G01*
X185800000Y-91300000D01*
X185500000Y-91300000D01*
X185500000Y-90000000D01*
X185800000Y-90000000D01*
X186100000Y-90000000D01*
X186100000Y-91300000D01*
G37*
G36*
X186900000Y-91300000D02*
G01*
X186600000Y-91300000D01*
X186300000Y-91300000D01*
X186300000Y-90000000D01*
X186600000Y-90000000D01*
X186900000Y-90000000D01*
X186900000Y-91300000D01*
G37*
G36*
X191700000Y-91299500D02*
G01*
X191400000Y-91299500D01*
X191100000Y-91299500D01*
X191100000Y-90000000D01*
X191400000Y-90000000D01*
X191700000Y-90000000D01*
X191700000Y-91299500D01*
G37*
G36*
X192500000Y-91299500D02*
G01*
X192200000Y-91299500D01*
X191900000Y-91299500D01*
X191900000Y-90000000D01*
X192200000Y-90000000D01*
X192500000Y-90000000D01*
X192500000Y-91299500D01*
G37*
G36*
X184719500Y-94700000D02*
G01*
X184749500Y-94703000D01*
X184779000Y-94707000D01*
X184808500Y-94713000D01*
X184837500Y-94720500D01*
X184866000Y-94729500D01*
X184894000Y-94739500D01*
X184921500Y-94751000D01*
X184948500Y-94764000D01*
X184975000Y-94778500D01*
X185000500Y-94794000D01*
X185025000Y-94811000D01*
X185049000Y-94829000D01*
X185072000Y-94848500D01*
X185094000Y-94868500D01*
X185114500Y-94890000D01*
X185134500Y-94912500D01*
X185153000Y-94936000D01*
X185170500Y-94960000D01*
X185187000Y-94985500D01*
X185202000Y-95011000D01*
X185215500Y-95038000D01*
X185228000Y-95065000D01*
X185238500Y-95093000D01*
X185248000Y-95121500D01*
X185256500Y-95150000D01*
X185263000Y-95179000D01*
X185268000Y-95208500D01*
X185272000Y-95238500D01*
X185274000Y-95268000D01*
X185275000Y-95298000D01*
X185275000Y-95898000D01*
X185274000Y-95928000D01*
X185272000Y-95958000D01*
X185268000Y-95987500D01*
X185263000Y-96017000D01*
X185256500Y-96046000D01*
X185248000Y-96075000D01*
X185238500Y-96103500D01*
X185228000Y-96131000D01*
X185215500Y-96158500D01*
X185202000Y-96185000D01*
X185187000Y-96211000D01*
X185170500Y-96236000D01*
X185153000Y-96260500D01*
X185134500Y-96284000D01*
X185114500Y-96306000D01*
X185094000Y-96327500D01*
X185072000Y-96348000D01*
X185049000Y-96367000D01*
X185025000Y-96385500D01*
X185000500Y-96402000D01*
X184975000Y-96417500D01*
X184948500Y-96432000D01*
X184921500Y-96445000D01*
X184894000Y-96456500D01*
X184866000Y-96467000D01*
X184837500Y-96475500D01*
X184808500Y-96483000D01*
X184779000Y-96489000D01*
X184749500Y-96493500D01*
X184719500Y-96496500D01*
X184690000Y-96498000D01*
X184660000Y-96498000D01*
X184630000Y-96496500D01*
X184600500Y-96493500D01*
X184570500Y-96489000D01*
X184541500Y-96483000D01*
X184512500Y-96475500D01*
X184484000Y-96467000D01*
X184455500Y-96456500D01*
X184428000Y-96445000D01*
X184401000Y-96432000D01*
X184375000Y-96417500D01*
X184349500Y-96402000D01*
X184324500Y-96385500D01*
X184301000Y-96367000D01*
X184278000Y-96348000D01*
X184256000Y-96327500D01*
X184235000Y-96306000D01*
X184215000Y-96284000D01*
X184196500Y-96260500D01*
X184179000Y-96236000D01*
X184163000Y-96211000D01*
X184148000Y-96185000D01*
X184134500Y-96158500D01*
X184122000Y-96131000D01*
X184111000Y-96103500D01*
X184101500Y-96075000D01*
X184093500Y-96046000D01*
X184087000Y-96017000D01*
X184081500Y-95987500D01*
X184078000Y-95958000D01*
X184075500Y-95928000D01*
X184075000Y-95898000D01*
X184075000Y-95298000D01*
X184075500Y-95268000D01*
X184078000Y-95238500D01*
X184081500Y-95208500D01*
X184087000Y-95179000D01*
X184093500Y-95150000D01*
X184101500Y-95121500D01*
X184111000Y-95093000D01*
X184122000Y-95065000D01*
X184134500Y-95038000D01*
X184148000Y-95011000D01*
X184163000Y-94985500D01*
X184179000Y-94960000D01*
X184196500Y-94936000D01*
X184215000Y-94912500D01*
X184235000Y-94890000D01*
X184256000Y-94868500D01*
X184278000Y-94848500D01*
X184301000Y-94829000D01*
X184324500Y-94811000D01*
X184349500Y-94794000D01*
X184375000Y-94778500D01*
X184401000Y-94764000D01*
X184428000Y-94751000D01*
X184455500Y-94739500D01*
X184484000Y-94729500D01*
X184512500Y-94720500D01*
X184541500Y-94713000D01*
X184570500Y-94707000D01*
X184600500Y-94703000D01*
X184630000Y-94700000D01*
X184660000Y-94698500D01*
X184690000Y-94698500D01*
X184719500Y-94700000D01*
G37*
G36*
X184719500Y-90420000D02*
G01*
X184749500Y-90423000D01*
X184779000Y-90427500D01*
X184808500Y-90433500D01*
X184837500Y-90440500D01*
X184866000Y-90449500D01*
X184894000Y-90459500D01*
X184921500Y-90471500D01*
X184948500Y-90484500D01*
X184975000Y-90498500D01*
X185000500Y-90514000D01*
X185025000Y-90531000D01*
X185049000Y-90549000D01*
X185072000Y-90568500D01*
X185094000Y-90588500D01*
X185114500Y-90610000D01*
X185134500Y-90632500D01*
X185153000Y-90656000D01*
X185170500Y-90680000D01*
X185187000Y-90705500D01*
X185202000Y-90731500D01*
X185215500Y-90758000D01*
X185228000Y-90785000D01*
X185238500Y-90813000D01*
X185248000Y-90841500D01*
X185256500Y-90870000D01*
X185263000Y-90899500D01*
X185268000Y-90929000D01*
X185272000Y-90958500D01*
X185274000Y-90988500D01*
X185275000Y-91018000D01*
X185275000Y-91818000D01*
X185274000Y-91848000D01*
X185272000Y-91878000D01*
X185268000Y-91907500D01*
X185263000Y-91937000D01*
X185256500Y-91966500D01*
X185248000Y-91995000D01*
X185238500Y-92023500D01*
X185228000Y-92051500D01*
X185215500Y-92078500D01*
X185202000Y-92105000D01*
X185187000Y-92131000D01*
X185170500Y-92156000D01*
X185153000Y-92180500D01*
X185134500Y-92204000D01*
X185114500Y-92226500D01*
X185094000Y-92247500D01*
X185072000Y-92268000D01*
X185049000Y-92287500D01*
X185025000Y-92305500D01*
X185000500Y-92322000D01*
X184975000Y-92338000D01*
X184948500Y-92352000D01*
X184921500Y-92365000D01*
X184894000Y-92376500D01*
X184866000Y-92387000D01*
X184837500Y-92396000D01*
X184808500Y-92403000D01*
X184779000Y-92409000D01*
X184749500Y-92413500D01*
X184719500Y-92416500D01*
X184690000Y-92418000D01*
X184660000Y-92418000D01*
X184630000Y-92416500D01*
X184600500Y-92413500D01*
X184570500Y-92409000D01*
X184541500Y-92403000D01*
X184512500Y-92396000D01*
X184484000Y-92387000D01*
X184455500Y-92376500D01*
X184428000Y-92365000D01*
X184401000Y-92352000D01*
X184375000Y-92338000D01*
X184349500Y-92322000D01*
X184324500Y-92305500D01*
X184301000Y-92287500D01*
X184278000Y-92268000D01*
X184256000Y-92247500D01*
X184235000Y-92226500D01*
X184215000Y-92204000D01*
X184196500Y-92180500D01*
X184179000Y-92156000D01*
X184163000Y-92131000D01*
X184148000Y-92105000D01*
X184134500Y-92078500D01*
X184122000Y-92051500D01*
X184111000Y-92023500D01*
X184101500Y-91995000D01*
X184093500Y-91966500D01*
X184087000Y-91937000D01*
X184081500Y-91907500D01*
X184078000Y-91878000D01*
X184075500Y-91848000D01*
X184075000Y-91818000D01*
X184075000Y-91018000D01*
X184075500Y-90988500D01*
X184078000Y-90958500D01*
X184081500Y-90929000D01*
X184087000Y-90899500D01*
X184093500Y-90870000D01*
X184101500Y-90841500D01*
X184111000Y-90813000D01*
X184122000Y-90785000D01*
X184134500Y-90758000D01*
X184148000Y-90731500D01*
X184163000Y-90705500D01*
X184179000Y-90680000D01*
X184196500Y-90656000D01*
X184215000Y-90632500D01*
X184235000Y-90610000D01*
X184256000Y-90588500D01*
X184278000Y-90568500D01*
X184301000Y-90549000D01*
X184324500Y-90531000D01*
X184349500Y-90514000D01*
X184375000Y-90498500D01*
X184401000Y-90484500D01*
X184428000Y-90471500D01*
X184455500Y-90459500D01*
X184484000Y-90449500D01*
X184512500Y-90440500D01*
X184541500Y-90433500D01*
X184570500Y-90427500D01*
X184600500Y-90423000D01*
X184630000Y-90420000D01*
X184660000Y-90418500D01*
X184690000Y-90418500D01*
X184719500Y-90420000D01*
G37*
G36*
X193370000Y-90420000D02*
G01*
X193399500Y-90423000D01*
X193429500Y-90427500D01*
X193458500Y-90433500D01*
X193487500Y-90440500D01*
X193516000Y-90449500D01*
X193544500Y-90459500D01*
X193572000Y-90471500D01*
X193599000Y-90484500D01*
X193625000Y-90498500D01*
X193650500Y-90514000D01*
X193675500Y-90531000D01*
X193699000Y-90549000D01*
X193722000Y-90568500D01*
X193744000Y-90588500D01*
X193765000Y-90610000D01*
X193785000Y-90632500D01*
X193803500Y-90656000D01*
X193821000Y-90680000D01*
X193837000Y-90705500D01*
X193852000Y-90731500D01*
X193865500Y-90758000D01*
X193878000Y-90785000D01*
X193889000Y-90813000D01*
X193898500Y-90841500D01*
X193906500Y-90870000D01*
X193913000Y-90899500D01*
X193918500Y-90929000D01*
X193922000Y-90958500D01*
X193924500Y-90988500D01*
X193925000Y-91018000D01*
X193925000Y-91818000D01*
X193924500Y-91848000D01*
X193922000Y-91878000D01*
X193918500Y-91907500D01*
X193913000Y-91937000D01*
X193906500Y-91966500D01*
X193898500Y-91995000D01*
X193889000Y-92023500D01*
X193878000Y-92051500D01*
X193865500Y-92078500D01*
X193852000Y-92105000D01*
X193837000Y-92131000D01*
X193821000Y-92156000D01*
X193803500Y-92180500D01*
X193785000Y-92204000D01*
X193765000Y-92226500D01*
X193744000Y-92247500D01*
X193722000Y-92268000D01*
X193699000Y-92287500D01*
X193675500Y-92305500D01*
X193650500Y-92322000D01*
X193625000Y-92338000D01*
X193599000Y-92352000D01*
X193572000Y-92365000D01*
X193544500Y-92376500D01*
X193516000Y-92387000D01*
X193487500Y-92396000D01*
X193458500Y-92403000D01*
X193429500Y-92409000D01*
X193399500Y-92413500D01*
X193370000Y-92416500D01*
X193340000Y-92418000D01*
X193310000Y-92418000D01*
X193280500Y-92416500D01*
X193250500Y-92413500D01*
X193221000Y-92409000D01*
X193191500Y-92403000D01*
X193162500Y-92396000D01*
X193134000Y-92387000D01*
X193106000Y-92376500D01*
X193078500Y-92365000D01*
X193051500Y-92352000D01*
X193025000Y-92338000D01*
X192999500Y-92322000D01*
X192975000Y-92305500D01*
X192951000Y-92287500D01*
X192928000Y-92268000D01*
X192906000Y-92247500D01*
X192885500Y-92226500D01*
X192865500Y-92204000D01*
X192847000Y-92180500D01*
X192829500Y-92156000D01*
X192813000Y-92131000D01*
X192798000Y-92105000D01*
X192784500Y-92078500D01*
X192772000Y-92051500D01*
X192761500Y-92023500D01*
X192752000Y-91995000D01*
X192743500Y-91966500D01*
X192737000Y-91937000D01*
X192732000Y-91907500D01*
X192728000Y-91878000D01*
X192726000Y-91848000D01*
X192725000Y-91818000D01*
X192725000Y-91018000D01*
X192726000Y-90988500D01*
X192728000Y-90958500D01*
X192732000Y-90929000D01*
X192737000Y-90899500D01*
X192743500Y-90870000D01*
X192752000Y-90841500D01*
X192761500Y-90813000D01*
X192772000Y-90785000D01*
X192784500Y-90758000D01*
X192798000Y-90731500D01*
X192813000Y-90705500D01*
X192829500Y-90680000D01*
X192847000Y-90656000D01*
X192865500Y-90632500D01*
X192885500Y-90610000D01*
X192906000Y-90588500D01*
X192928000Y-90568500D01*
X192951000Y-90549000D01*
X192975000Y-90531000D01*
X192999500Y-90514000D01*
X193025000Y-90498500D01*
X193051500Y-90484500D01*
X193078500Y-90471500D01*
X193106000Y-90459500D01*
X193134000Y-90449500D01*
X193162500Y-90440500D01*
X193191500Y-90433500D01*
X193221000Y-90427500D01*
X193250500Y-90423000D01*
X193280500Y-90420000D01*
X193310000Y-90418500D01*
X193340000Y-90418500D01*
X193370000Y-90420000D01*
G37*
G36*
X193370000Y-94700000D02*
G01*
X193399500Y-94703000D01*
X193429500Y-94707000D01*
X193458500Y-94713000D01*
X193487500Y-94720500D01*
X193516000Y-94729500D01*
X193544500Y-94739500D01*
X193572000Y-94751000D01*
X193599000Y-94764000D01*
X193625000Y-94778500D01*
X193650500Y-94794000D01*
X193675500Y-94811000D01*
X193699000Y-94829000D01*
X193722000Y-94848500D01*
X193744000Y-94868500D01*
X193765000Y-94890000D01*
X193785000Y-94912500D01*
X193803500Y-94936000D01*
X193821000Y-94960000D01*
X193837000Y-94985500D01*
X193852000Y-95011000D01*
X193865500Y-95038000D01*
X193878000Y-95065000D01*
X193889000Y-95093000D01*
X193898500Y-95121500D01*
X193906500Y-95150000D01*
X193913000Y-95179000D01*
X193918500Y-95208500D01*
X193922000Y-95238500D01*
X193924500Y-95268000D01*
X193925000Y-95298000D01*
X193925000Y-95898000D01*
X193924500Y-95928000D01*
X193922000Y-95958000D01*
X193918500Y-95987500D01*
X193913000Y-96017000D01*
X193906500Y-96046000D01*
X193898500Y-96075000D01*
X193889000Y-96103500D01*
X193878000Y-96131000D01*
X193865500Y-96158500D01*
X193852000Y-96185000D01*
X193837000Y-96211000D01*
X193821000Y-96236000D01*
X193803500Y-96260500D01*
X193785000Y-96284000D01*
X193765000Y-96306000D01*
X193744000Y-96327500D01*
X193722000Y-96348000D01*
X193699000Y-96367000D01*
X193675500Y-96385500D01*
X193650500Y-96402000D01*
X193625000Y-96417500D01*
X193599000Y-96432000D01*
X193572000Y-96445000D01*
X193544500Y-96456500D01*
X193516000Y-96467000D01*
X193487500Y-96475500D01*
X193458500Y-96483000D01*
X193429500Y-96489000D01*
X193399500Y-96493500D01*
X193370000Y-96496500D01*
X193340000Y-96498000D01*
X193310000Y-96498000D01*
X193280500Y-96496500D01*
X193250500Y-96493500D01*
X193221000Y-96489000D01*
X193191500Y-96483000D01*
X193162500Y-96475500D01*
X193134000Y-96467000D01*
X193106000Y-96456500D01*
X193078500Y-96445000D01*
X193051500Y-96432000D01*
X193025000Y-96417500D01*
X192999500Y-96402000D01*
X192975000Y-96385500D01*
X192951000Y-96367000D01*
X192928000Y-96348000D01*
X192906000Y-96327500D01*
X192885500Y-96306000D01*
X192865500Y-96284000D01*
X192847000Y-96260500D01*
X192829500Y-96236000D01*
X192813000Y-96211000D01*
X192798000Y-96185000D01*
X192784500Y-96158500D01*
X192772000Y-96131000D01*
X192761500Y-96103500D01*
X192752000Y-96075000D01*
X192743500Y-96046000D01*
X192737000Y-96017000D01*
X192732000Y-95987500D01*
X192728000Y-95958000D01*
X192726000Y-95928000D01*
X192725000Y-95898000D01*
X192725000Y-95298000D01*
X192726000Y-95268000D01*
X192728000Y-95238500D01*
X192732000Y-95208500D01*
X192737000Y-95179000D01*
X192743500Y-95150000D01*
X192752000Y-95121500D01*
X192761500Y-95093000D01*
X192772000Y-95065000D01*
X192784500Y-95038000D01*
X192798000Y-95011000D01*
X192813000Y-94985500D01*
X192829500Y-94960000D01*
X192847000Y-94936000D01*
X192865500Y-94912500D01*
X192885500Y-94890000D01*
X192906000Y-94868500D01*
X192928000Y-94848500D01*
X192951000Y-94829000D01*
X192975000Y-94811000D01*
X192999500Y-94794000D01*
X193025000Y-94778500D01*
X193051500Y-94764000D01*
X193078500Y-94751000D01*
X193106000Y-94739500D01*
X193134000Y-94729500D01*
X193162500Y-94720500D01*
X193191500Y-94713000D01*
X193221000Y-94707000D01*
X193250500Y-94703000D01*
X193280500Y-94700000D01*
X193310000Y-94698500D01*
X193340000Y-94698500D01*
X193370000Y-94700000D01*
G37*
%TO.C,U16*%
G36*
X177255000Y-60700000D02*
G01*
X177255000Y-60942000D01*
X176885000Y-60942000D01*
X176885000Y-61272000D01*
X177255000Y-61272000D01*
X177255000Y-61500000D01*
X177205000Y-61550000D01*
X176405000Y-61550000D01*
X176355000Y-61500000D01*
X176355000Y-60700000D01*
X176405000Y-60650000D01*
X177205000Y-60650000D01*
X177255000Y-60700000D01*
G37*
G36*
X178845000Y-60700000D02*
G01*
X178845000Y-61500000D01*
X178795000Y-61550000D01*
X177995000Y-61550000D01*
X177945000Y-61500000D01*
X177945000Y-61258000D01*
X178315000Y-61258000D01*
X178315000Y-60928000D01*
X177945000Y-60928000D01*
X177945000Y-60700000D01*
X177995000Y-60650000D01*
X178795000Y-60650000D01*
X178845000Y-60700000D01*
G37*
%TO.C,USB4*%
G36*
X187400000Y-107097111D02*
G01*
X187100000Y-107097111D01*
X187100000Y-105797111D01*
X187400000Y-105797111D01*
X187400000Y-107097111D01*
G37*
G36*
X187900000Y-107097111D02*
G01*
X187600000Y-107097111D01*
X187600000Y-105797111D01*
X187900000Y-105797111D01*
X187900000Y-107097111D01*
G37*
G36*
X188400000Y-107097111D02*
G01*
X188100000Y-107097111D01*
X188100000Y-105797111D01*
X188400000Y-105797111D01*
X188400000Y-107097111D01*
G37*
G36*
X188900000Y-107097111D02*
G01*
X188600000Y-107097111D01*
X188600000Y-105797111D01*
X188900000Y-105797111D01*
X188900000Y-107097111D01*
G37*
G36*
X189400000Y-107097111D02*
G01*
X189100000Y-107097111D01*
X189100000Y-105797111D01*
X189400000Y-105797111D01*
X189400000Y-107097111D01*
G37*
G36*
X189900000Y-107097111D02*
G01*
X189600000Y-107097111D01*
X189600000Y-105797111D01*
X189900000Y-105797111D01*
X189900000Y-107097111D01*
G37*
G36*
X190399500Y-107097111D02*
G01*
X190099500Y-107097111D01*
X190099500Y-105797111D01*
X190399500Y-105797111D01*
X190399500Y-107097111D01*
G37*
G36*
X190900000Y-107097111D02*
G01*
X190600000Y-107097111D01*
X190600000Y-105797111D01*
X190900000Y-105797111D01*
X190900000Y-107097111D01*
G37*
G36*
X186100000Y-107097111D02*
G01*
X185800000Y-107097111D01*
X185500000Y-107097111D01*
X185500000Y-105797111D01*
X185800000Y-105797111D01*
X186100000Y-105797111D01*
X186100000Y-107097111D01*
G37*
G36*
X186900000Y-107097111D02*
G01*
X186600000Y-107097111D01*
X186300000Y-107097111D01*
X186300000Y-105797111D01*
X186600000Y-105797111D01*
X186900000Y-105797111D01*
X186900000Y-107097111D01*
G37*
G36*
X191700000Y-107096611D02*
G01*
X191400000Y-107096611D01*
X191100000Y-107096611D01*
X191100000Y-105797111D01*
X191400000Y-105797111D01*
X191700000Y-105797111D01*
X191700000Y-107096611D01*
G37*
G36*
X192500000Y-107096611D02*
G01*
X192200000Y-107096611D01*
X191900000Y-107096611D01*
X191900000Y-105797111D01*
X192200000Y-105797111D01*
X192500000Y-105797111D01*
X192500000Y-107096611D01*
G37*
G36*
X184719500Y-110497111D02*
G01*
X184749500Y-110500111D01*
X184779000Y-110504111D01*
X184808500Y-110510111D01*
X184837500Y-110517611D01*
X184866000Y-110526611D01*
X184894000Y-110536611D01*
X184921500Y-110548111D01*
X184948500Y-110561111D01*
X184975000Y-110575611D01*
X185000500Y-110591111D01*
X185025000Y-110608111D01*
X185049000Y-110626111D01*
X185072000Y-110645611D01*
X185094000Y-110665611D01*
X185114500Y-110687111D01*
X185134500Y-110709611D01*
X185153000Y-110733111D01*
X185170500Y-110757111D01*
X185187000Y-110782611D01*
X185202000Y-110808111D01*
X185215500Y-110835111D01*
X185228000Y-110862111D01*
X185238500Y-110890111D01*
X185248000Y-110918611D01*
X185256500Y-110947111D01*
X185263000Y-110976111D01*
X185268000Y-111005611D01*
X185272000Y-111035611D01*
X185274000Y-111065111D01*
X185275000Y-111095111D01*
X185275000Y-111695111D01*
X185274000Y-111725111D01*
X185272000Y-111755111D01*
X185268000Y-111784611D01*
X185263000Y-111814111D01*
X185256500Y-111843111D01*
X185248000Y-111872111D01*
X185238500Y-111900611D01*
X185228000Y-111928111D01*
X185215500Y-111955611D01*
X185202000Y-111982111D01*
X185187000Y-112008111D01*
X185170500Y-112033111D01*
X185153000Y-112057611D01*
X185134500Y-112081111D01*
X185114500Y-112103111D01*
X185094000Y-112124611D01*
X185072000Y-112145111D01*
X185049000Y-112164111D01*
X185025000Y-112182611D01*
X185000500Y-112199111D01*
X184975000Y-112214611D01*
X184948500Y-112229111D01*
X184921500Y-112242111D01*
X184894000Y-112253611D01*
X184866000Y-112264111D01*
X184837500Y-112272611D01*
X184808500Y-112280111D01*
X184779000Y-112286111D01*
X184749500Y-112290611D01*
X184719500Y-112293611D01*
X184690000Y-112295111D01*
X184660000Y-112295111D01*
X184630000Y-112293611D01*
X184600500Y-112290611D01*
X184570500Y-112286111D01*
X184541500Y-112280111D01*
X184512500Y-112272611D01*
X184484000Y-112264111D01*
X184455500Y-112253611D01*
X184428000Y-112242111D01*
X184401000Y-112229111D01*
X184375000Y-112214611D01*
X184349500Y-112199111D01*
X184324500Y-112182611D01*
X184301000Y-112164111D01*
X184278000Y-112145111D01*
X184256000Y-112124611D01*
X184235000Y-112103111D01*
X184215000Y-112081111D01*
X184196500Y-112057611D01*
X184179000Y-112033111D01*
X184163000Y-112008111D01*
X184148000Y-111982111D01*
X184134500Y-111955611D01*
X184122000Y-111928111D01*
X184111000Y-111900611D01*
X184101500Y-111872111D01*
X184093500Y-111843111D01*
X184087000Y-111814111D01*
X184081500Y-111784611D01*
X184078000Y-111755111D01*
X184075500Y-111725111D01*
X184075000Y-111695111D01*
X184075000Y-111095111D01*
X184075500Y-111065111D01*
X184078000Y-111035611D01*
X184081500Y-111005611D01*
X184087000Y-110976111D01*
X184093500Y-110947111D01*
X184101500Y-110918611D01*
X184111000Y-110890111D01*
X184122000Y-110862111D01*
X184134500Y-110835111D01*
X184148000Y-110808111D01*
X184163000Y-110782611D01*
X184179000Y-110757111D01*
X184196500Y-110733111D01*
X184215000Y-110709611D01*
X184235000Y-110687111D01*
X184256000Y-110665611D01*
X184278000Y-110645611D01*
X184301000Y-110626111D01*
X184324500Y-110608111D01*
X184349500Y-110591111D01*
X184375000Y-110575611D01*
X184401000Y-110561111D01*
X184428000Y-110548111D01*
X184455500Y-110536611D01*
X184484000Y-110526611D01*
X184512500Y-110517611D01*
X184541500Y-110510111D01*
X184570500Y-110504111D01*
X184600500Y-110500111D01*
X184630000Y-110497111D01*
X184660000Y-110495611D01*
X184690000Y-110495611D01*
X184719500Y-110497111D01*
G37*
G36*
X184719500Y-106217111D02*
G01*
X184749500Y-106220111D01*
X184779000Y-106224611D01*
X184808500Y-106230611D01*
X184837500Y-106237611D01*
X184866000Y-106246611D01*
X184894000Y-106256611D01*
X184921500Y-106268611D01*
X184948500Y-106281611D01*
X184975000Y-106295611D01*
X185000500Y-106311111D01*
X185025000Y-106328111D01*
X185049000Y-106346111D01*
X185072000Y-106365611D01*
X185094000Y-106385611D01*
X185114500Y-106407111D01*
X185134500Y-106429611D01*
X185153000Y-106453111D01*
X185170500Y-106477111D01*
X185187000Y-106502611D01*
X185202000Y-106528611D01*
X185215500Y-106555111D01*
X185228000Y-106582111D01*
X185238500Y-106610111D01*
X185248000Y-106638611D01*
X185256500Y-106667111D01*
X185263000Y-106696611D01*
X185268000Y-106726111D01*
X185272000Y-106755611D01*
X185274000Y-106785611D01*
X185275000Y-106815111D01*
X185275000Y-107615111D01*
X185274000Y-107645111D01*
X185272000Y-107675111D01*
X185268000Y-107704611D01*
X185263000Y-107734111D01*
X185256500Y-107763611D01*
X185248000Y-107792111D01*
X185238500Y-107820611D01*
X185228000Y-107848611D01*
X185215500Y-107875611D01*
X185202000Y-107902111D01*
X185187000Y-107928111D01*
X185170500Y-107953111D01*
X185153000Y-107977611D01*
X185134500Y-108001111D01*
X185114500Y-108023611D01*
X185094000Y-108044611D01*
X185072000Y-108065111D01*
X185049000Y-108084611D01*
X185025000Y-108102611D01*
X185000500Y-108119111D01*
X184975000Y-108135111D01*
X184948500Y-108149111D01*
X184921500Y-108162111D01*
X184894000Y-108173611D01*
X184866000Y-108184111D01*
X184837500Y-108193111D01*
X184808500Y-108200111D01*
X184779000Y-108206111D01*
X184749500Y-108210611D01*
X184719500Y-108213611D01*
X184690000Y-108215111D01*
X184660000Y-108215111D01*
X184630000Y-108213611D01*
X184600500Y-108210611D01*
X184570500Y-108206111D01*
X184541500Y-108200111D01*
X184512500Y-108193111D01*
X184484000Y-108184111D01*
X184455500Y-108173611D01*
X184428000Y-108162111D01*
X184401000Y-108149111D01*
X184375000Y-108135111D01*
X184349500Y-108119111D01*
X184324500Y-108102611D01*
X184301000Y-108084611D01*
X184278000Y-108065111D01*
X184256000Y-108044611D01*
X184235000Y-108023611D01*
X184215000Y-108001111D01*
X184196500Y-107977611D01*
X184179000Y-107953111D01*
X184163000Y-107928111D01*
X184148000Y-107902111D01*
X184134500Y-107875611D01*
X184122000Y-107848611D01*
X184111000Y-107820611D01*
X184101500Y-107792111D01*
X184093500Y-107763611D01*
X184087000Y-107734111D01*
X184081500Y-107704611D01*
X184078000Y-107675111D01*
X184075500Y-107645111D01*
X184075000Y-107615111D01*
X184075000Y-106815111D01*
X184075500Y-106785611D01*
X184078000Y-106755611D01*
X184081500Y-106726111D01*
X184087000Y-106696611D01*
X184093500Y-106667111D01*
X184101500Y-106638611D01*
X184111000Y-106610111D01*
X184122000Y-106582111D01*
X184134500Y-106555111D01*
X184148000Y-106528611D01*
X184163000Y-106502611D01*
X184179000Y-106477111D01*
X184196500Y-106453111D01*
X184215000Y-106429611D01*
X184235000Y-106407111D01*
X184256000Y-106385611D01*
X184278000Y-106365611D01*
X184301000Y-106346111D01*
X184324500Y-106328111D01*
X184349500Y-106311111D01*
X184375000Y-106295611D01*
X184401000Y-106281611D01*
X184428000Y-106268611D01*
X184455500Y-106256611D01*
X184484000Y-106246611D01*
X184512500Y-106237611D01*
X184541500Y-106230611D01*
X184570500Y-106224611D01*
X184600500Y-106220111D01*
X184630000Y-106217111D01*
X184660000Y-106215611D01*
X184690000Y-106215611D01*
X184719500Y-106217111D01*
G37*
G36*
X193370000Y-106217111D02*
G01*
X193399500Y-106220111D01*
X193429500Y-106224611D01*
X193458500Y-106230611D01*
X193487500Y-106237611D01*
X193516000Y-106246611D01*
X193544500Y-106256611D01*
X193572000Y-106268611D01*
X193599000Y-106281611D01*
X193625000Y-106295611D01*
X193650500Y-106311111D01*
X193675500Y-106328111D01*
X193699000Y-106346111D01*
X193722000Y-106365611D01*
X193744000Y-106385611D01*
X193765000Y-106407111D01*
X193785000Y-106429611D01*
X193803500Y-106453111D01*
X193821000Y-106477111D01*
X193837000Y-106502611D01*
X193852000Y-106528611D01*
X193865500Y-106555111D01*
X193878000Y-106582111D01*
X193889000Y-106610111D01*
X193898500Y-106638611D01*
X193906500Y-106667111D01*
X193913000Y-106696611D01*
X193918500Y-106726111D01*
X193922000Y-106755611D01*
X193924500Y-106785611D01*
X193925000Y-106815111D01*
X193925000Y-107615111D01*
X193924500Y-107645111D01*
X193922000Y-107675111D01*
X193918500Y-107704611D01*
X193913000Y-107734111D01*
X193906500Y-107763611D01*
X193898500Y-107792111D01*
X193889000Y-107820611D01*
X193878000Y-107848611D01*
X193865500Y-107875611D01*
X193852000Y-107902111D01*
X193837000Y-107928111D01*
X193821000Y-107953111D01*
X193803500Y-107977611D01*
X193785000Y-108001111D01*
X193765000Y-108023611D01*
X193744000Y-108044611D01*
X193722000Y-108065111D01*
X193699000Y-108084611D01*
X193675500Y-108102611D01*
X193650500Y-108119111D01*
X193625000Y-108135111D01*
X193599000Y-108149111D01*
X193572000Y-108162111D01*
X193544500Y-108173611D01*
X193516000Y-108184111D01*
X193487500Y-108193111D01*
X193458500Y-108200111D01*
X193429500Y-108206111D01*
X193399500Y-108210611D01*
X193370000Y-108213611D01*
X193340000Y-108215111D01*
X193310000Y-108215111D01*
X193280500Y-108213611D01*
X193250500Y-108210611D01*
X193221000Y-108206111D01*
X193191500Y-108200111D01*
X193162500Y-108193111D01*
X193134000Y-108184111D01*
X193106000Y-108173611D01*
X193078500Y-108162111D01*
X193051500Y-108149111D01*
X193025000Y-108135111D01*
X192999500Y-108119111D01*
X192975000Y-108102611D01*
X192951000Y-108084611D01*
X192928000Y-108065111D01*
X192906000Y-108044611D01*
X192885500Y-108023611D01*
X192865500Y-108001111D01*
X192847000Y-107977611D01*
X192829500Y-107953111D01*
X192813000Y-107928111D01*
X192798000Y-107902111D01*
X192784500Y-107875611D01*
X192772000Y-107848611D01*
X192761500Y-107820611D01*
X192752000Y-107792111D01*
X192743500Y-107763611D01*
X192737000Y-107734111D01*
X192732000Y-107704611D01*
X192728000Y-107675111D01*
X192726000Y-107645111D01*
X192725000Y-107615111D01*
X192725000Y-106815111D01*
X192726000Y-106785611D01*
X192728000Y-106755611D01*
X192732000Y-106726111D01*
X192737000Y-106696611D01*
X192743500Y-106667111D01*
X192752000Y-106638611D01*
X192761500Y-106610111D01*
X192772000Y-106582111D01*
X192784500Y-106555111D01*
X192798000Y-106528611D01*
X192813000Y-106502611D01*
X192829500Y-106477111D01*
X192847000Y-106453111D01*
X192865500Y-106429611D01*
X192885500Y-106407111D01*
X192906000Y-106385611D01*
X192928000Y-106365611D01*
X192951000Y-106346111D01*
X192975000Y-106328111D01*
X192999500Y-106311111D01*
X193025000Y-106295611D01*
X193051500Y-106281611D01*
X193078500Y-106268611D01*
X193106000Y-106256611D01*
X193134000Y-106246611D01*
X193162500Y-106237611D01*
X193191500Y-106230611D01*
X193221000Y-106224611D01*
X193250500Y-106220111D01*
X193280500Y-106217111D01*
X193310000Y-106215611D01*
X193340000Y-106215611D01*
X193370000Y-106217111D01*
G37*
G36*
X193370000Y-110497111D02*
G01*
X193399500Y-110500111D01*
X193429500Y-110504111D01*
X193458500Y-110510111D01*
X193487500Y-110517611D01*
X193516000Y-110526611D01*
X193544500Y-110536611D01*
X193572000Y-110548111D01*
X193599000Y-110561111D01*
X193625000Y-110575611D01*
X193650500Y-110591111D01*
X193675500Y-110608111D01*
X193699000Y-110626111D01*
X193722000Y-110645611D01*
X193744000Y-110665611D01*
X193765000Y-110687111D01*
X193785000Y-110709611D01*
X193803500Y-110733111D01*
X193821000Y-110757111D01*
X193837000Y-110782611D01*
X193852000Y-110808111D01*
X193865500Y-110835111D01*
X193878000Y-110862111D01*
X193889000Y-110890111D01*
X193898500Y-110918611D01*
X193906500Y-110947111D01*
X193913000Y-110976111D01*
X193918500Y-111005611D01*
X193922000Y-111035611D01*
X193924500Y-111065111D01*
X193925000Y-111095111D01*
X193925000Y-111695111D01*
X193924500Y-111725111D01*
X193922000Y-111755111D01*
X193918500Y-111784611D01*
X193913000Y-111814111D01*
X193906500Y-111843111D01*
X193898500Y-111872111D01*
X193889000Y-111900611D01*
X193878000Y-111928111D01*
X193865500Y-111955611D01*
X193852000Y-111982111D01*
X193837000Y-112008111D01*
X193821000Y-112033111D01*
X193803500Y-112057611D01*
X193785000Y-112081111D01*
X193765000Y-112103111D01*
X193744000Y-112124611D01*
X193722000Y-112145111D01*
X193699000Y-112164111D01*
X193675500Y-112182611D01*
X193650500Y-112199111D01*
X193625000Y-112214611D01*
X193599000Y-112229111D01*
X193572000Y-112242111D01*
X193544500Y-112253611D01*
X193516000Y-112264111D01*
X193487500Y-112272611D01*
X193458500Y-112280111D01*
X193429500Y-112286111D01*
X193399500Y-112290611D01*
X193370000Y-112293611D01*
X193340000Y-112295111D01*
X193310000Y-112295111D01*
X193280500Y-112293611D01*
X193250500Y-112290611D01*
X193221000Y-112286111D01*
X193191500Y-112280111D01*
X193162500Y-112272611D01*
X193134000Y-112264111D01*
X193106000Y-112253611D01*
X193078500Y-112242111D01*
X193051500Y-112229111D01*
X193025000Y-112214611D01*
X192999500Y-112199111D01*
X192975000Y-112182611D01*
X192951000Y-112164111D01*
X192928000Y-112145111D01*
X192906000Y-112124611D01*
X192885500Y-112103111D01*
X192865500Y-112081111D01*
X192847000Y-112057611D01*
X192829500Y-112033111D01*
X192813000Y-112008111D01*
X192798000Y-111982111D01*
X192784500Y-111955611D01*
X192772000Y-111928111D01*
X192761500Y-111900611D01*
X192752000Y-111872111D01*
X192743500Y-111843111D01*
X192737000Y-111814111D01*
X192732000Y-111784611D01*
X192728000Y-111755111D01*
X192726000Y-111725111D01*
X192725000Y-111695111D01*
X192725000Y-111095111D01*
X192726000Y-111065111D01*
X192728000Y-111035611D01*
X192732000Y-111005611D01*
X192737000Y-110976111D01*
X192743500Y-110947111D01*
X192752000Y-110918611D01*
X192761500Y-110890111D01*
X192772000Y-110862111D01*
X192784500Y-110835111D01*
X192798000Y-110808111D01*
X192813000Y-110782611D01*
X192829500Y-110757111D01*
X192847000Y-110733111D01*
X192865500Y-110709611D01*
X192885500Y-110687111D01*
X192906000Y-110665611D01*
X192928000Y-110645611D01*
X192951000Y-110626111D01*
X192975000Y-110608111D01*
X192999500Y-110591111D01*
X193025000Y-110575611D01*
X193051500Y-110561111D01*
X193078500Y-110548111D01*
X193106000Y-110536611D01*
X193134000Y-110526611D01*
X193162500Y-110517611D01*
X193191500Y-110510111D01*
X193221000Y-110504111D01*
X193250500Y-110500111D01*
X193280500Y-110497111D01*
X193310000Y-110495611D01*
X193340000Y-110495611D01*
X193370000Y-110497111D01*
G37*
%TO.C,R19*%
G36*
X178050000Y-74405000D02*
G01*
X178050000Y-75205000D01*
X178000000Y-75255000D01*
X177758000Y-75255000D01*
X177758000Y-74885000D01*
X177428000Y-74885000D01*
X177428000Y-75255000D01*
X177200000Y-75255000D01*
X177150000Y-75205000D01*
X177150000Y-74405000D01*
X177200000Y-74355000D01*
X178000000Y-74355000D01*
X178050000Y-74405000D01*
G37*
G36*
X177442000Y-76315000D02*
G01*
X177772000Y-76315000D01*
X177772000Y-75945000D01*
X178000000Y-75945000D01*
X178050000Y-75995000D01*
X178050000Y-76795000D01*
X178000000Y-76845000D01*
X177200000Y-76845000D01*
X177150000Y-76795000D01*
X177150000Y-75995000D01*
X177200000Y-75945000D01*
X177442000Y-75945000D01*
X177442000Y-76315000D01*
G37*
%TO.C,R13*%
G36*
X178050000Y-80705000D02*
G01*
X178050000Y-81505000D01*
X178000000Y-81555000D01*
X177758000Y-81555000D01*
X177758000Y-81185000D01*
X177428000Y-81185000D01*
X177428000Y-81555000D01*
X177200000Y-81555000D01*
X177150000Y-81505000D01*
X177150000Y-80705000D01*
X177200000Y-80655000D01*
X178000000Y-80655000D01*
X178050000Y-80705000D01*
G37*
G36*
X177442000Y-82615000D02*
G01*
X177772000Y-82615000D01*
X177772000Y-82245000D01*
X178000000Y-82245000D01*
X178050000Y-82295000D01*
X178050000Y-83095000D01*
X178000000Y-83145000D01*
X177200000Y-83145000D01*
X177150000Y-83095000D01*
X177150000Y-82295000D01*
X177200000Y-82245000D01*
X177442000Y-82245000D01*
X177442000Y-82615000D01*
G37*
%TO.C,R3*%
G36*
X136350000Y-54851500D02*
G01*
X136350000Y-55651500D01*
X136300000Y-55701500D01*
X136058000Y-55701500D01*
X136058000Y-55331500D01*
X135728000Y-55331500D01*
X135728000Y-55701500D01*
X135500000Y-55701500D01*
X135450000Y-55651500D01*
X135450000Y-54851500D01*
X135500000Y-54801500D01*
X136300000Y-54801500D01*
X136350000Y-54851500D01*
G37*
G36*
X135742000Y-56761500D02*
G01*
X136072000Y-56761500D01*
X136072000Y-56391500D01*
X136300000Y-56391500D01*
X136350000Y-56441500D01*
X136350000Y-57241500D01*
X136300000Y-57291500D01*
X135500000Y-57291500D01*
X135450000Y-57241500D01*
X135450000Y-56441500D01*
X135500000Y-56391500D01*
X135742000Y-56391500D01*
X135742000Y-56761500D01*
G37*
%TO.C,R6*%
G36*
X150755000Y-93100000D02*
G01*
X150755000Y-93342000D01*
X150385000Y-93342000D01*
X150385000Y-93672000D01*
X150755000Y-93672000D01*
X150755000Y-93900000D01*
X150705000Y-93950000D01*
X149905000Y-93950000D01*
X149855000Y-93900000D01*
X149855000Y-93100000D01*
X149905000Y-93050000D01*
X150705000Y-93050000D01*
X150755000Y-93100000D01*
G37*
G36*
X152345000Y-93100000D02*
G01*
X152345000Y-93900000D01*
X152295000Y-93950000D01*
X151495000Y-93950000D01*
X151445000Y-93900000D01*
X151445000Y-93658000D01*
X151815000Y-93658000D01*
X151815000Y-93328000D01*
X151445000Y-93328000D01*
X151445000Y-93100000D01*
X151495000Y-93050000D01*
X152295000Y-93050000D01*
X152345000Y-93100000D01*
G37*
%TO.C,R18*%
G36*
X129755000Y-57100000D02*
G01*
X129755000Y-57342000D01*
X129385000Y-57342000D01*
X129385000Y-57672000D01*
X129755000Y-57672000D01*
X129755000Y-57900000D01*
X129705000Y-57950000D01*
X128905000Y-57950000D01*
X128855000Y-57900000D01*
X128855000Y-57100000D01*
X128905000Y-57050000D01*
X129705000Y-57050000D01*
X129755000Y-57100000D01*
G37*
G36*
X131345000Y-57100000D02*
G01*
X131345000Y-57900000D01*
X131295000Y-57950000D01*
X130495000Y-57950000D01*
X130445000Y-57900000D01*
X130445000Y-57658000D01*
X130815000Y-57658000D01*
X130815000Y-57328000D01*
X130445000Y-57328000D01*
X130445000Y-57100000D01*
X130495000Y-57050000D01*
X131295000Y-57050000D01*
X131345000Y-57100000D01*
G37*
%TO.C,R15*%
G36*
X149655000Y-98100000D02*
G01*
X149655000Y-98342000D01*
X149285000Y-98342000D01*
X149285000Y-98672000D01*
X149655000Y-98672000D01*
X149655000Y-98900000D01*
X149605000Y-98950000D01*
X148805000Y-98950000D01*
X148755000Y-98900000D01*
X148755000Y-98100000D01*
X148805000Y-98050000D01*
X149605000Y-98050000D01*
X149655000Y-98100000D01*
G37*
G36*
X151245000Y-98100000D02*
G01*
X151245000Y-98900000D01*
X151195000Y-98950000D01*
X150395000Y-98950000D01*
X150345000Y-98900000D01*
X150345000Y-98658000D01*
X150715000Y-98658000D01*
X150715000Y-98328000D01*
X150345000Y-98328000D01*
X150345000Y-98100000D01*
X150395000Y-98050000D01*
X151195000Y-98050000D01*
X151245000Y-98100000D01*
G37*
%TO.C,R4*%
G36*
X155555000Y-81100000D02*
G01*
X155555000Y-81342000D01*
X155185000Y-81342000D01*
X155185000Y-81672000D01*
X155555000Y-81672000D01*
X155555000Y-81900000D01*
X155505000Y-81950000D01*
X154705000Y-81950000D01*
X154655000Y-81900000D01*
X154655000Y-81100000D01*
X154705000Y-81050000D01*
X155505000Y-81050000D01*
X155555000Y-81100000D01*
G37*
G36*
X157145000Y-81100000D02*
G01*
X157145000Y-81900000D01*
X157095000Y-81950000D01*
X156295000Y-81950000D01*
X156245000Y-81900000D01*
X156245000Y-81658000D01*
X156615000Y-81658000D01*
X156615000Y-81328000D01*
X156245000Y-81328000D01*
X156245000Y-81100000D01*
X156295000Y-81050000D01*
X157095000Y-81050000D01*
X157145000Y-81100000D01*
G37*
%TO.C,R2*%
G36*
X174646433Y-100792933D02*
G01*
X174646433Y-101942933D01*
X174596433Y-101992933D01*
X174176433Y-101992933D01*
X174176433Y-101547933D01*
X173726433Y-101547933D01*
X173726433Y-101987933D01*
X173316433Y-101992933D01*
X173266433Y-101942933D01*
X173266433Y-100792933D01*
X173316433Y-100742933D01*
X174596433Y-100742933D01*
X174646433Y-100792933D01*
G37*
G36*
X173726433Y-103337933D02*
G01*
X174176433Y-103337933D01*
X174176433Y-102897933D01*
X174596433Y-102892933D01*
X174646433Y-102942933D01*
X174646433Y-104092933D01*
X174596433Y-104142933D01*
X173316433Y-104142933D01*
X173266433Y-104092933D01*
X173266433Y-102942933D01*
X173316433Y-102892933D01*
X173726433Y-102887933D01*
X173726433Y-103337933D01*
G37*
%TO.C,U9*%
G36*
X147801500Y-81200000D02*
G01*
X147801500Y-81442000D01*
X147431500Y-81442000D01*
X147431500Y-81772000D01*
X147801500Y-81772000D01*
X147801500Y-82000000D01*
X147751500Y-82050000D01*
X146951500Y-82050000D01*
X146901500Y-82000000D01*
X146901500Y-81200000D01*
X146951500Y-81150000D01*
X147751500Y-81150000D01*
X147801500Y-81200000D01*
G37*
G36*
X149391500Y-81200000D02*
G01*
X149391500Y-82000000D01*
X149341500Y-82050000D01*
X148541500Y-82050000D01*
X148491500Y-82000000D01*
X148491500Y-81758000D01*
X148861500Y-81758000D01*
X148861500Y-81428000D01*
X148491500Y-81428000D01*
X148491500Y-81200000D01*
X148541500Y-81150000D01*
X149341500Y-81150000D01*
X149391500Y-81200000D01*
G37*
%TO.C,USB5*%
G36*
X134621750Y-64250000D02*
G01*
X133321750Y-64250000D01*
X133321750Y-63950000D01*
X134621750Y-63950000D01*
X134621750Y-64250000D01*
G37*
G36*
X134621750Y-65250000D02*
G01*
X133321750Y-65250000D01*
X133321750Y-64950000D01*
X134621750Y-64950000D01*
X134621750Y-65250000D01*
G37*
G36*
X134621750Y-65750000D02*
G01*
X133321750Y-65750000D01*
X133321750Y-65450000D01*
X134621750Y-65450000D01*
X134621750Y-65750000D01*
G37*
G36*
X134621750Y-66250000D02*
G01*
X133321750Y-66250000D01*
X133321750Y-65950000D01*
X134621750Y-65950000D01*
X134621750Y-66250000D01*
G37*
G36*
X134621750Y-66750000D02*
G01*
X133321750Y-66750000D01*
X133321750Y-66450000D01*
X134621750Y-66450000D01*
X134621750Y-66750000D01*
G37*
G36*
X134621750Y-67249500D02*
G01*
X133321750Y-67249500D01*
X133321750Y-66949500D01*
X134621750Y-66949500D01*
X134621750Y-67249500D01*
G37*
G36*
X134621750Y-67750000D02*
G01*
X133321750Y-67750000D01*
X133321750Y-67450000D01*
X134621750Y-67450000D01*
X134621750Y-67750000D01*
G37*
G36*
X134621750Y-64750000D02*
G01*
X133321750Y-64750000D01*
X133321750Y-64450000D01*
X134621750Y-64450000D01*
X134621750Y-64750000D01*
G37*
G36*
X134621750Y-62650000D02*
G01*
X134621750Y-62950000D01*
X133321750Y-62950000D01*
X133321750Y-62650000D01*
X133321750Y-62350000D01*
X134621750Y-62350000D01*
X134621750Y-62650000D01*
G37*
G36*
X134621750Y-63450000D02*
G01*
X134621750Y-63750000D01*
X133321750Y-63750000D01*
X133321750Y-63450000D01*
X133321750Y-63150000D01*
X134621750Y-63150000D01*
X134621750Y-63450000D01*
G37*
G36*
X134621750Y-68250000D02*
G01*
X134621750Y-68550000D01*
X133322250Y-68550000D01*
X133322250Y-68250000D01*
X133322250Y-67950000D01*
X134621750Y-67950000D01*
X134621750Y-68250000D01*
G37*
G36*
X134621750Y-69050000D02*
G01*
X134621750Y-69350000D01*
X133322250Y-69350000D01*
X133322250Y-69050000D01*
X133322250Y-68750000D01*
X134621750Y-68750000D01*
X134621750Y-69050000D01*
G37*
G36*
X129353750Y-69576000D02*
G01*
X129383250Y-69578000D01*
X129413250Y-69582000D01*
X129442750Y-69587000D01*
X129471750Y-69593500D01*
X129500250Y-69602000D01*
X129528750Y-69611500D01*
X129556750Y-69622000D01*
X129583750Y-69634500D01*
X129610750Y-69648000D01*
X129636250Y-69663000D01*
X129661750Y-69679500D01*
X129685750Y-69697000D01*
X129709250Y-69715500D01*
X129731750Y-69735500D01*
X129753250Y-69756000D01*
X129773250Y-69778000D01*
X129792750Y-69801000D01*
X129810750Y-69825000D01*
X129827750Y-69849500D01*
X129843250Y-69875000D01*
X129857750Y-69901500D01*
X129870750Y-69928500D01*
X129882250Y-69956000D01*
X129892250Y-69984000D01*
X129901250Y-70012500D01*
X129908750Y-70041500D01*
X129914750Y-70071000D01*
X129918750Y-70100500D01*
X129921750Y-70130500D01*
X129923250Y-70160000D01*
X129923250Y-70190000D01*
X129921750Y-70220000D01*
X129918750Y-70249500D01*
X129914750Y-70279500D01*
X129908750Y-70308500D01*
X129901250Y-70337500D01*
X129892250Y-70366000D01*
X129882250Y-70394500D01*
X129870750Y-70422000D01*
X129857750Y-70449000D01*
X129843250Y-70475000D01*
X129827750Y-70500500D01*
X129810750Y-70525500D01*
X129792750Y-70549000D01*
X129773250Y-70572000D01*
X129753250Y-70594000D01*
X129731750Y-70615000D01*
X129709250Y-70635000D01*
X129685750Y-70653500D01*
X129661750Y-70671000D01*
X129636250Y-70687000D01*
X129610750Y-70702000D01*
X129583750Y-70715500D01*
X129556750Y-70728000D01*
X129528750Y-70739000D01*
X129500250Y-70748500D01*
X129471750Y-70756500D01*
X129442750Y-70763000D01*
X129413250Y-70768500D01*
X129383250Y-70772000D01*
X129353750Y-70774500D01*
X129323750Y-70775000D01*
X128723750Y-70775000D01*
X128693750Y-70774500D01*
X128663750Y-70772000D01*
X128634250Y-70768500D01*
X128604750Y-70763000D01*
X128575750Y-70756500D01*
X128546750Y-70748500D01*
X128518250Y-70739000D01*
X128490750Y-70728000D01*
X128463250Y-70715500D01*
X128436750Y-70702000D01*
X128410750Y-70687000D01*
X128385750Y-70671000D01*
X128361250Y-70653500D01*
X128337750Y-70635000D01*
X128315750Y-70615000D01*
X128294250Y-70594000D01*
X128273750Y-70572000D01*
X128254750Y-70549000D01*
X128236250Y-70525500D01*
X128219750Y-70500500D01*
X128204250Y-70475000D01*
X128189750Y-70449000D01*
X128176750Y-70422000D01*
X128165250Y-70394500D01*
X128154750Y-70366000D01*
X128146250Y-70337500D01*
X128138750Y-70308500D01*
X128132750Y-70279500D01*
X128128250Y-70249500D01*
X128125250Y-70220000D01*
X128123750Y-70190000D01*
X128123750Y-70160000D01*
X128125250Y-70130500D01*
X128128250Y-70100500D01*
X128132750Y-70071000D01*
X128138750Y-70041500D01*
X128146250Y-70012500D01*
X128154750Y-69984000D01*
X128165250Y-69956000D01*
X128176750Y-69928500D01*
X128189750Y-69901500D01*
X128204250Y-69875000D01*
X128219750Y-69849500D01*
X128236250Y-69825000D01*
X128254750Y-69801000D01*
X128273750Y-69778000D01*
X128294250Y-69756000D01*
X128315750Y-69735500D01*
X128337750Y-69715500D01*
X128361250Y-69697000D01*
X128385750Y-69679500D01*
X128410750Y-69663000D01*
X128436750Y-69648000D01*
X128463250Y-69634500D01*
X128490750Y-69622000D01*
X128518250Y-69611500D01*
X128546750Y-69602000D01*
X128575750Y-69593500D01*
X128604750Y-69587000D01*
X128634250Y-69582000D01*
X128663750Y-69578000D01*
X128693750Y-69576000D01*
X128723750Y-69575000D01*
X129323750Y-69575000D01*
X129353750Y-69576000D01*
G37*
G36*
X129353750Y-60925500D02*
G01*
X129383250Y-60928000D01*
X129413250Y-60931500D01*
X129442750Y-60937000D01*
X129471750Y-60943500D01*
X129500250Y-60951500D01*
X129528750Y-60961000D01*
X129556750Y-60972000D01*
X129583750Y-60984500D01*
X129610750Y-60998000D01*
X129636250Y-61013000D01*
X129661750Y-61029000D01*
X129685750Y-61046500D01*
X129709250Y-61065000D01*
X129731750Y-61085000D01*
X129753250Y-61106000D01*
X129773250Y-61128000D01*
X129792750Y-61151000D01*
X129810750Y-61174500D01*
X129827750Y-61199500D01*
X129843250Y-61225000D01*
X129857750Y-61251000D01*
X129870750Y-61278000D01*
X129882250Y-61305500D01*
X129892250Y-61334000D01*
X129901250Y-61362500D01*
X129908750Y-61391500D01*
X129914750Y-61420500D01*
X129918750Y-61450500D01*
X129921750Y-61480000D01*
X129923250Y-61510000D01*
X129923250Y-61540000D01*
X129921750Y-61569500D01*
X129918750Y-61599500D01*
X129914750Y-61629000D01*
X129908750Y-61658500D01*
X129901250Y-61687500D01*
X129892250Y-61716000D01*
X129882250Y-61744000D01*
X129870750Y-61771500D01*
X129857750Y-61798500D01*
X129843250Y-61825000D01*
X129827750Y-61850500D01*
X129810750Y-61875000D01*
X129792750Y-61899000D01*
X129773250Y-61922000D01*
X129753250Y-61944000D01*
X129731750Y-61964500D01*
X129709250Y-61984500D01*
X129685750Y-62003000D01*
X129661750Y-62020500D01*
X129636250Y-62037000D01*
X129610750Y-62052000D01*
X129583750Y-62065500D01*
X129556750Y-62078000D01*
X129528750Y-62088500D01*
X129500250Y-62098000D01*
X129471750Y-62106500D01*
X129442750Y-62113000D01*
X129413250Y-62118000D01*
X129383250Y-62122000D01*
X129353750Y-62124000D01*
X129323750Y-62125000D01*
X128723750Y-62125000D01*
X128693750Y-62124000D01*
X128663750Y-62122000D01*
X128634250Y-62118000D01*
X128604750Y-62113000D01*
X128575750Y-62106500D01*
X128546750Y-62098000D01*
X128518250Y-62088500D01*
X128490750Y-62078000D01*
X128463250Y-62065500D01*
X128436750Y-62052000D01*
X128410750Y-62037000D01*
X128385750Y-62020500D01*
X128361250Y-62003000D01*
X128337750Y-61984500D01*
X128315750Y-61964500D01*
X128294250Y-61944000D01*
X128273750Y-61922000D01*
X128254750Y-61899000D01*
X128236250Y-61875000D01*
X128219750Y-61850500D01*
X128204250Y-61825000D01*
X128189750Y-61798500D01*
X128176750Y-61771500D01*
X128165250Y-61744000D01*
X128154750Y-61716000D01*
X128146250Y-61687500D01*
X128138750Y-61658500D01*
X128132750Y-61629000D01*
X128128250Y-61599500D01*
X128125250Y-61569500D01*
X128123750Y-61540000D01*
X128123750Y-61510000D01*
X128125250Y-61480000D01*
X128128250Y-61450500D01*
X128132750Y-61420500D01*
X128138750Y-61391500D01*
X128146250Y-61362500D01*
X128154750Y-61334000D01*
X128165250Y-61305500D01*
X128176750Y-61278000D01*
X128189750Y-61251000D01*
X128204250Y-61225000D01*
X128219750Y-61199500D01*
X128236250Y-61174500D01*
X128254750Y-61151000D01*
X128273750Y-61128000D01*
X128294250Y-61106000D01*
X128315750Y-61085000D01*
X128337750Y-61065000D01*
X128361250Y-61046500D01*
X128385750Y-61029000D01*
X128410750Y-61013000D01*
X128436750Y-60998000D01*
X128463250Y-60984500D01*
X128490750Y-60972000D01*
X128518250Y-60961000D01*
X128546750Y-60951500D01*
X128575750Y-60943500D01*
X128604750Y-60937000D01*
X128634250Y-60931500D01*
X128663750Y-60928000D01*
X128693750Y-60925500D01*
X128723750Y-60925000D01*
X129323750Y-60925000D01*
X129353750Y-60925500D01*
G37*
G36*
X133633250Y-60925500D02*
G01*
X133663250Y-60928000D01*
X133692750Y-60931500D01*
X133722250Y-60937000D01*
X133751750Y-60943500D01*
X133780250Y-60951500D01*
X133808750Y-60961000D01*
X133836750Y-60972000D01*
X133863750Y-60984500D01*
X133890250Y-60998000D01*
X133916250Y-61013000D01*
X133941750Y-61029000D01*
X133965750Y-61046500D01*
X133989250Y-61065000D01*
X134011750Y-61085000D01*
X134033250Y-61106000D01*
X134053250Y-61128000D01*
X134072750Y-61151000D01*
X134090750Y-61174500D01*
X134107750Y-61199500D01*
X134123250Y-61225000D01*
X134137250Y-61251000D01*
X134150250Y-61278000D01*
X134162250Y-61305500D01*
X134172250Y-61334000D01*
X134181250Y-61362500D01*
X134188250Y-61391500D01*
X134194250Y-61420500D01*
X134198750Y-61450500D01*
X134201750Y-61480000D01*
X134203250Y-61510000D01*
X134203250Y-61540000D01*
X134201750Y-61569500D01*
X134198750Y-61599500D01*
X134194250Y-61629000D01*
X134188250Y-61658500D01*
X134181250Y-61687500D01*
X134172250Y-61716000D01*
X134162250Y-61744000D01*
X134150250Y-61771500D01*
X134137250Y-61798500D01*
X134123250Y-61825000D01*
X134107750Y-61850500D01*
X134090750Y-61875000D01*
X134072750Y-61899000D01*
X134053250Y-61922000D01*
X134033250Y-61944000D01*
X134011750Y-61964500D01*
X133989250Y-61984500D01*
X133965750Y-62003000D01*
X133941750Y-62020500D01*
X133916250Y-62037000D01*
X133890250Y-62052000D01*
X133863750Y-62065500D01*
X133836750Y-62078000D01*
X133808750Y-62088500D01*
X133780250Y-62098000D01*
X133751750Y-62106500D01*
X133722250Y-62113000D01*
X133692750Y-62118000D01*
X133663250Y-62122000D01*
X133633250Y-62124000D01*
X133603750Y-62125000D01*
X132803750Y-62125000D01*
X132773750Y-62124000D01*
X132743750Y-62122000D01*
X132714250Y-62118000D01*
X132684750Y-62113000D01*
X132655250Y-62106500D01*
X132626750Y-62098000D01*
X132598250Y-62088500D01*
X132570250Y-62078000D01*
X132543250Y-62065500D01*
X132516750Y-62052000D01*
X132490750Y-62037000D01*
X132465750Y-62020500D01*
X132441250Y-62003000D01*
X132417750Y-61984500D01*
X132395250Y-61964500D01*
X132374250Y-61944000D01*
X132353750Y-61922000D01*
X132334250Y-61899000D01*
X132316250Y-61875000D01*
X132299750Y-61850500D01*
X132283750Y-61825000D01*
X132269750Y-61798500D01*
X132256750Y-61771500D01*
X132245250Y-61744000D01*
X132234750Y-61716000D01*
X132225750Y-61687500D01*
X132218750Y-61658500D01*
X132212750Y-61629000D01*
X132208250Y-61599500D01*
X132205250Y-61569500D01*
X132203750Y-61540000D01*
X132203750Y-61510000D01*
X132205250Y-61480000D01*
X132208250Y-61450500D01*
X132212750Y-61420500D01*
X132218750Y-61391500D01*
X132225750Y-61362500D01*
X132234750Y-61334000D01*
X132245250Y-61305500D01*
X132256750Y-61278000D01*
X132269750Y-61251000D01*
X132283750Y-61225000D01*
X132299750Y-61199500D01*
X132316250Y-61174500D01*
X132334250Y-61151000D01*
X132353750Y-61128000D01*
X132374250Y-61106000D01*
X132395250Y-61085000D01*
X132417750Y-61065000D01*
X132441250Y-61046500D01*
X132465750Y-61029000D01*
X132490750Y-61013000D01*
X132516750Y-60998000D01*
X132543250Y-60984500D01*
X132570250Y-60972000D01*
X132598250Y-60961000D01*
X132626750Y-60951500D01*
X132655250Y-60943500D01*
X132684750Y-60937000D01*
X132714250Y-60931500D01*
X132743750Y-60928000D01*
X132773750Y-60925500D01*
X132803750Y-60925000D01*
X133603750Y-60925000D01*
X133633250Y-60925500D01*
G37*
G36*
X133633250Y-69576000D02*
G01*
X133663250Y-69578000D01*
X133692750Y-69582000D01*
X133722250Y-69587000D01*
X133751750Y-69593500D01*
X133780250Y-69602000D01*
X133808750Y-69611500D01*
X133836750Y-69622000D01*
X133863750Y-69634500D01*
X133890250Y-69648000D01*
X133916250Y-69663000D01*
X133941750Y-69679500D01*
X133965750Y-69697000D01*
X133989250Y-69715500D01*
X134011750Y-69735500D01*
X134033250Y-69756000D01*
X134053250Y-69778000D01*
X134072750Y-69801000D01*
X134090750Y-69825000D01*
X134107750Y-69849500D01*
X134123250Y-69875000D01*
X134137250Y-69901500D01*
X134150250Y-69928500D01*
X134162250Y-69956000D01*
X134172250Y-69984000D01*
X134181250Y-70012500D01*
X134188250Y-70041500D01*
X134194250Y-70071000D01*
X134198750Y-70100500D01*
X134201750Y-70130500D01*
X134203250Y-70160000D01*
X134203250Y-70190000D01*
X134201750Y-70220000D01*
X134198750Y-70249500D01*
X134194250Y-70279500D01*
X134188250Y-70308500D01*
X134181250Y-70337500D01*
X134172250Y-70366000D01*
X134162250Y-70394500D01*
X134150250Y-70422000D01*
X134137250Y-70449000D01*
X134123250Y-70475000D01*
X134107750Y-70500500D01*
X134090750Y-70525500D01*
X134072750Y-70549000D01*
X134053250Y-70572000D01*
X134033250Y-70594000D01*
X134011750Y-70615000D01*
X133989250Y-70635000D01*
X133965750Y-70653500D01*
X133941750Y-70671000D01*
X133916250Y-70687000D01*
X133890250Y-70702000D01*
X133863750Y-70715500D01*
X133836750Y-70728000D01*
X133808750Y-70739000D01*
X133780250Y-70748500D01*
X133751750Y-70756500D01*
X133722250Y-70763000D01*
X133692750Y-70768500D01*
X133663250Y-70772000D01*
X133633250Y-70774500D01*
X133603750Y-70775000D01*
X132803750Y-70775000D01*
X132773750Y-70774500D01*
X132743750Y-70772000D01*
X132714250Y-70768500D01*
X132684750Y-70763000D01*
X132655250Y-70756500D01*
X132626750Y-70748500D01*
X132598250Y-70739000D01*
X132570250Y-70728000D01*
X132543250Y-70715500D01*
X132516750Y-70702000D01*
X132490750Y-70687000D01*
X132465750Y-70671000D01*
X132441250Y-70653500D01*
X132417750Y-70635000D01*
X132395250Y-70615000D01*
X132374250Y-70594000D01*
X132353750Y-70572000D01*
X132334250Y-70549000D01*
X132316250Y-70525500D01*
X132299750Y-70500500D01*
X132283750Y-70475000D01*
X132269750Y-70449000D01*
X132256750Y-70422000D01*
X132245250Y-70394500D01*
X132234750Y-70366000D01*
X132225750Y-70337500D01*
X132218750Y-70308500D01*
X132212750Y-70279500D01*
X132208250Y-70249500D01*
X132205250Y-70220000D01*
X132203750Y-70190000D01*
X132203750Y-70160000D01*
X132205250Y-70130500D01*
X132208250Y-70100500D01*
X132212750Y-70071000D01*
X132218750Y-70041500D01*
X132225750Y-70012500D01*
X132234750Y-69984000D01*
X132245250Y-69956000D01*
X132256750Y-69928500D01*
X132269750Y-69901500D01*
X132283750Y-69875000D01*
X132299750Y-69849500D01*
X132316250Y-69825000D01*
X132334250Y-69801000D01*
X132353750Y-69778000D01*
X132374250Y-69756000D01*
X132395250Y-69735500D01*
X132417750Y-69715500D01*
X132441250Y-69697000D01*
X132465750Y-69679500D01*
X132490750Y-69663000D01*
X132516750Y-69648000D01*
X132543250Y-69634500D01*
X132570250Y-69622000D01*
X132598250Y-69611500D01*
X132626750Y-69602000D01*
X132655250Y-69593500D01*
X132684750Y-69587000D01*
X132714250Y-69582000D01*
X132743750Y-69578000D01*
X132773750Y-69576000D01*
X132803750Y-69575000D01*
X133603750Y-69575000D01*
X133633250Y-69576000D01*
G37*
%TO.C,U8*%
G36*
X149655000Y-96100000D02*
G01*
X149655000Y-96342000D01*
X149285000Y-96342000D01*
X149285000Y-96672000D01*
X149655000Y-96672000D01*
X149655000Y-96900000D01*
X149605000Y-96950000D01*
X148805000Y-96950000D01*
X148755000Y-96900000D01*
X148755000Y-96100000D01*
X148805000Y-96050000D01*
X149605000Y-96050000D01*
X149655000Y-96100000D01*
G37*
G36*
X151245000Y-96100000D02*
G01*
X151245000Y-96900000D01*
X151195000Y-96950000D01*
X150395000Y-96950000D01*
X150345000Y-96900000D01*
X150345000Y-96658000D01*
X150715000Y-96658000D01*
X150715000Y-96328000D01*
X150345000Y-96328000D01*
X150345000Y-96100000D01*
X150395000Y-96050000D01*
X151195000Y-96050000D01*
X151245000Y-96100000D01*
G37*
%TO.C,USB1*%
G36*
X165900000Y-110678250D02*
G01*
X165600000Y-110678250D01*
X165600000Y-109378250D01*
X165900000Y-109378250D01*
X165900000Y-110678250D01*
G37*
G36*
X166400000Y-110678250D02*
G01*
X166100000Y-110678250D01*
X166100000Y-109378250D01*
X166400000Y-109378250D01*
X166400000Y-110678250D01*
G37*
G36*
X166900000Y-110678250D02*
G01*
X166600000Y-110678250D01*
X166600000Y-109378250D01*
X166900000Y-109378250D01*
X166900000Y-110678250D01*
G37*
G36*
X167400000Y-110678250D02*
G01*
X167100000Y-110678250D01*
X167100000Y-109378250D01*
X167400000Y-109378250D01*
X167400000Y-110678250D01*
G37*
G36*
X167900000Y-110678250D02*
G01*
X167600000Y-110678250D01*
X167600000Y-109378250D01*
X167900000Y-109378250D01*
X167900000Y-110678250D01*
G37*
G36*
X168400000Y-110678250D02*
G01*
X168100000Y-110678250D01*
X168100000Y-109378250D01*
X168400000Y-109378250D01*
X168400000Y-110678250D01*
G37*
G36*
X168899500Y-110678250D02*
G01*
X168599500Y-110678250D01*
X168599500Y-109378250D01*
X168899500Y-109378250D01*
X168899500Y-110678250D01*
G37*
G36*
X169400000Y-110678250D02*
G01*
X169100000Y-110678250D01*
X169100000Y-109378250D01*
X169400000Y-109378250D01*
X169400000Y-110678250D01*
G37*
G36*
X164600000Y-110678250D02*
G01*
X164300000Y-110678250D01*
X164000000Y-110678250D01*
X164000000Y-109378250D01*
X164300000Y-109378250D01*
X164600000Y-109378250D01*
X164600000Y-110678250D01*
G37*
G36*
X165400000Y-110678250D02*
G01*
X165100000Y-110678250D01*
X164800000Y-110678250D01*
X164800000Y-109378250D01*
X165100000Y-109378250D01*
X165400000Y-109378250D01*
X165400000Y-110678250D01*
G37*
G36*
X170200000Y-110677750D02*
G01*
X169900000Y-110677750D01*
X169600000Y-110677750D01*
X169600000Y-109378250D01*
X169900000Y-109378250D01*
X170200000Y-109378250D01*
X170200000Y-110677750D01*
G37*
G36*
X171000000Y-110677750D02*
G01*
X170700000Y-110677750D01*
X170400000Y-110677750D01*
X170400000Y-109378250D01*
X170700000Y-109378250D01*
X171000000Y-109378250D01*
X171000000Y-110677750D01*
G37*
G36*
X163219500Y-114078250D02*
G01*
X163249500Y-114081250D01*
X163279000Y-114085250D01*
X163308500Y-114091250D01*
X163337500Y-114098750D01*
X163366000Y-114107750D01*
X163394000Y-114117750D01*
X163421500Y-114129250D01*
X163448500Y-114142250D01*
X163475000Y-114156750D01*
X163500500Y-114172250D01*
X163525000Y-114189250D01*
X163549000Y-114207250D01*
X163572000Y-114226750D01*
X163594000Y-114246750D01*
X163614500Y-114268250D01*
X163634500Y-114290750D01*
X163653000Y-114314250D01*
X163670500Y-114338250D01*
X163687000Y-114363750D01*
X163702000Y-114389250D01*
X163715500Y-114416250D01*
X163728000Y-114443250D01*
X163738500Y-114471250D01*
X163748000Y-114499750D01*
X163756500Y-114528250D01*
X163763000Y-114557250D01*
X163768000Y-114586750D01*
X163772000Y-114616750D01*
X163774000Y-114646250D01*
X163775000Y-114676250D01*
X163775000Y-115276250D01*
X163774000Y-115306250D01*
X163772000Y-115336250D01*
X163768000Y-115365750D01*
X163763000Y-115395250D01*
X163756500Y-115424250D01*
X163748000Y-115453250D01*
X163738500Y-115481750D01*
X163728000Y-115509250D01*
X163715500Y-115536750D01*
X163702000Y-115563250D01*
X163687000Y-115589250D01*
X163670500Y-115614250D01*
X163653000Y-115638750D01*
X163634500Y-115662250D01*
X163614500Y-115684250D01*
X163594000Y-115705750D01*
X163572000Y-115726250D01*
X163549000Y-115745250D01*
X163525000Y-115763750D01*
X163500500Y-115780250D01*
X163475000Y-115795750D01*
X163448500Y-115810250D01*
X163421500Y-115823250D01*
X163394000Y-115834750D01*
X163366000Y-115845250D01*
X163337500Y-115853750D01*
X163308500Y-115861250D01*
X163279000Y-115867250D01*
X163249500Y-115871750D01*
X163219500Y-115874750D01*
X163190000Y-115876250D01*
X163160000Y-115876250D01*
X163130000Y-115874750D01*
X163100500Y-115871750D01*
X163070500Y-115867250D01*
X163041500Y-115861250D01*
X163012500Y-115853750D01*
X162984000Y-115845250D01*
X162955500Y-115834750D01*
X162928000Y-115823250D01*
X162901000Y-115810250D01*
X162875000Y-115795750D01*
X162849500Y-115780250D01*
X162824500Y-115763750D01*
X162801000Y-115745250D01*
X162778000Y-115726250D01*
X162756000Y-115705750D01*
X162735000Y-115684250D01*
X162715000Y-115662250D01*
X162696500Y-115638750D01*
X162679000Y-115614250D01*
X162663000Y-115589250D01*
X162648000Y-115563250D01*
X162634500Y-115536750D01*
X162622000Y-115509250D01*
X162611000Y-115481750D01*
X162601500Y-115453250D01*
X162593500Y-115424250D01*
X162587000Y-115395250D01*
X162581500Y-115365750D01*
X162578000Y-115336250D01*
X162575500Y-115306250D01*
X162575000Y-115276250D01*
X162575000Y-114676250D01*
X162575500Y-114646250D01*
X162578000Y-114616750D01*
X162581500Y-114586750D01*
X162587000Y-114557250D01*
X162593500Y-114528250D01*
X162601500Y-114499750D01*
X162611000Y-114471250D01*
X162622000Y-114443250D01*
X162634500Y-114416250D01*
X162648000Y-114389250D01*
X162663000Y-114363750D01*
X162679000Y-114338250D01*
X162696500Y-114314250D01*
X162715000Y-114290750D01*
X162735000Y-114268250D01*
X162756000Y-114246750D01*
X162778000Y-114226750D01*
X162801000Y-114207250D01*
X162824500Y-114189250D01*
X162849500Y-114172250D01*
X162875000Y-114156750D01*
X162901000Y-114142250D01*
X162928000Y-114129250D01*
X162955500Y-114117750D01*
X162984000Y-114107750D01*
X163012500Y-114098750D01*
X163041500Y-114091250D01*
X163070500Y-114085250D01*
X163100500Y-114081250D01*
X163130000Y-114078250D01*
X163160000Y-114076750D01*
X163190000Y-114076750D01*
X163219500Y-114078250D01*
G37*
G36*
X163219500Y-109798250D02*
G01*
X163249500Y-109801250D01*
X163279000Y-109805750D01*
X163308500Y-109811750D01*
X163337500Y-109818750D01*
X163366000Y-109827750D01*
X163394000Y-109837750D01*
X163421500Y-109849750D01*
X163448500Y-109862750D01*
X163475000Y-109876750D01*
X163500500Y-109892250D01*
X163525000Y-109909250D01*
X163549000Y-109927250D01*
X163572000Y-109946750D01*
X163594000Y-109966750D01*
X163614500Y-109988250D01*
X163634500Y-110010750D01*
X163653000Y-110034250D01*
X163670500Y-110058250D01*
X163687000Y-110083750D01*
X163702000Y-110109750D01*
X163715500Y-110136250D01*
X163728000Y-110163250D01*
X163738500Y-110191250D01*
X163748000Y-110219750D01*
X163756500Y-110248250D01*
X163763000Y-110277750D01*
X163768000Y-110307250D01*
X163772000Y-110336750D01*
X163774000Y-110366750D01*
X163775000Y-110396250D01*
X163775000Y-111196250D01*
X163774000Y-111226250D01*
X163772000Y-111256250D01*
X163768000Y-111285750D01*
X163763000Y-111315250D01*
X163756500Y-111344750D01*
X163748000Y-111373250D01*
X163738500Y-111401750D01*
X163728000Y-111429750D01*
X163715500Y-111456750D01*
X163702000Y-111483250D01*
X163687000Y-111509250D01*
X163670500Y-111534250D01*
X163653000Y-111558750D01*
X163634500Y-111582250D01*
X163614500Y-111604750D01*
X163594000Y-111625750D01*
X163572000Y-111646250D01*
X163549000Y-111665750D01*
X163525000Y-111683750D01*
X163500500Y-111700250D01*
X163475000Y-111716250D01*
X163448500Y-111730250D01*
X163421500Y-111743250D01*
X163394000Y-111754750D01*
X163366000Y-111765250D01*
X163337500Y-111774250D01*
X163308500Y-111781250D01*
X163279000Y-111787250D01*
X163249500Y-111791750D01*
X163219500Y-111794750D01*
X163190000Y-111796250D01*
X163160000Y-111796250D01*
X163130000Y-111794750D01*
X163100500Y-111791750D01*
X163070500Y-111787250D01*
X163041500Y-111781250D01*
X163012500Y-111774250D01*
X162984000Y-111765250D01*
X162955500Y-111754750D01*
X162928000Y-111743250D01*
X162901000Y-111730250D01*
X162875000Y-111716250D01*
X162849500Y-111700250D01*
X162824500Y-111683750D01*
X162801000Y-111665750D01*
X162778000Y-111646250D01*
X162756000Y-111625750D01*
X162735000Y-111604750D01*
X162715000Y-111582250D01*
X162696500Y-111558750D01*
X162679000Y-111534250D01*
X162663000Y-111509250D01*
X162648000Y-111483250D01*
X162634500Y-111456750D01*
X162622000Y-111429750D01*
X162611000Y-111401750D01*
X162601500Y-111373250D01*
X162593500Y-111344750D01*
X162587000Y-111315250D01*
X162581500Y-111285750D01*
X162578000Y-111256250D01*
X162575500Y-111226250D01*
X162575000Y-111196250D01*
X162575000Y-110396250D01*
X162575500Y-110366750D01*
X162578000Y-110336750D01*
X162581500Y-110307250D01*
X162587000Y-110277750D01*
X162593500Y-110248250D01*
X162601500Y-110219750D01*
X162611000Y-110191250D01*
X162622000Y-110163250D01*
X162634500Y-110136250D01*
X162648000Y-110109750D01*
X162663000Y-110083750D01*
X162679000Y-110058250D01*
X162696500Y-110034250D01*
X162715000Y-110010750D01*
X162735000Y-109988250D01*
X162756000Y-109966750D01*
X162778000Y-109946750D01*
X162801000Y-109927250D01*
X162824500Y-109909250D01*
X162849500Y-109892250D01*
X162875000Y-109876750D01*
X162901000Y-109862750D01*
X162928000Y-109849750D01*
X162955500Y-109837750D01*
X162984000Y-109827750D01*
X163012500Y-109818750D01*
X163041500Y-109811750D01*
X163070500Y-109805750D01*
X163100500Y-109801250D01*
X163130000Y-109798250D01*
X163160000Y-109796750D01*
X163190000Y-109796750D01*
X163219500Y-109798250D01*
G37*
G36*
X171870000Y-109798250D02*
G01*
X171899500Y-109801250D01*
X171929500Y-109805750D01*
X171958500Y-109811750D01*
X171987500Y-109818750D01*
X172016000Y-109827750D01*
X172044500Y-109837750D01*
X172072000Y-109849750D01*
X172099000Y-109862750D01*
X172125000Y-109876750D01*
X172150500Y-109892250D01*
X172175500Y-109909250D01*
X172199000Y-109927250D01*
X172222000Y-109946750D01*
X172244000Y-109966750D01*
X172265000Y-109988250D01*
X172285000Y-110010750D01*
X172303500Y-110034250D01*
X172321000Y-110058250D01*
X172337000Y-110083750D01*
X172352000Y-110109750D01*
X172365500Y-110136250D01*
X172378000Y-110163250D01*
X172389000Y-110191250D01*
X172398500Y-110219750D01*
X172406500Y-110248250D01*
X172413000Y-110277750D01*
X172418500Y-110307250D01*
X172422000Y-110336750D01*
X172424500Y-110366750D01*
X172425000Y-110396250D01*
X172425000Y-111196250D01*
X172424500Y-111226250D01*
X172422000Y-111256250D01*
X172418500Y-111285750D01*
X172413000Y-111315250D01*
X172406500Y-111344750D01*
X172398500Y-111373250D01*
X172389000Y-111401750D01*
X172378000Y-111429750D01*
X172365500Y-111456750D01*
X172352000Y-111483250D01*
X172337000Y-111509250D01*
X172321000Y-111534250D01*
X172303500Y-111558750D01*
X172285000Y-111582250D01*
X172265000Y-111604750D01*
X172244000Y-111625750D01*
X172222000Y-111646250D01*
X172199000Y-111665750D01*
X172175500Y-111683750D01*
X172150500Y-111700250D01*
X172125000Y-111716250D01*
X172099000Y-111730250D01*
X172072000Y-111743250D01*
X172044500Y-111754750D01*
X172016000Y-111765250D01*
X171987500Y-111774250D01*
X171958500Y-111781250D01*
X171929500Y-111787250D01*
X171899500Y-111791750D01*
X171870000Y-111794750D01*
X171840000Y-111796250D01*
X171810000Y-111796250D01*
X171780500Y-111794750D01*
X171750500Y-111791750D01*
X171721000Y-111787250D01*
X171691500Y-111781250D01*
X171662500Y-111774250D01*
X171634000Y-111765250D01*
X171606000Y-111754750D01*
X171578500Y-111743250D01*
X171551500Y-111730250D01*
X171525000Y-111716250D01*
X171499500Y-111700250D01*
X171475000Y-111683750D01*
X171451000Y-111665750D01*
X171428000Y-111646250D01*
X171406000Y-111625750D01*
X171385500Y-111604750D01*
X171365500Y-111582250D01*
X171347000Y-111558750D01*
X171329500Y-111534250D01*
X171313000Y-111509250D01*
X171298000Y-111483250D01*
X171284500Y-111456750D01*
X171272000Y-111429750D01*
X171261500Y-111401750D01*
X171252000Y-111373250D01*
X171243500Y-111344750D01*
X171237000Y-111315250D01*
X171232000Y-111285750D01*
X171228000Y-111256250D01*
X171226000Y-111226250D01*
X171225000Y-111196250D01*
X171225000Y-110396250D01*
X171226000Y-110366750D01*
X171228000Y-110336750D01*
X171232000Y-110307250D01*
X171237000Y-110277750D01*
X171243500Y-110248250D01*
X171252000Y-110219750D01*
X171261500Y-110191250D01*
X171272000Y-110163250D01*
X171284500Y-110136250D01*
X171298000Y-110109750D01*
X171313000Y-110083750D01*
X171329500Y-110058250D01*
X171347000Y-110034250D01*
X171365500Y-110010750D01*
X171385500Y-109988250D01*
X171406000Y-109966750D01*
X171428000Y-109946750D01*
X171451000Y-109927250D01*
X171475000Y-109909250D01*
X171499500Y-109892250D01*
X171525000Y-109876750D01*
X171551500Y-109862750D01*
X171578500Y-109849750D01*
X171606000Y-109837750D01*
X171634000Y-109827750D01*
X171662500Y-109818750D01*
X171691500Y-109811750D01*
X171721000Y-109805750D01*
X171750500Y-109801250D01*
X171780500Y-109798250D01*
X171810000Y-109796750D01*
X171840000Y-109796750D01*
X171870000Y-109798250D01*
G37*
G36*
X171870000Y-114078250D02*
G01*
X171899500Y-114081250D01*
X171929500Y-114085250D01*
X171958500Y-114091250D01*
X171987500Y-114098750D01*
X172016000Y-114107750D01*
X172044500Y-114117750D01*
X172072000Y-114129250D01*
X172099000Y-114142250D01*
X172125000Y-114156750D01*
X172150500Y-114172250D01*
X172175500Y-114189250D01*
X172199000Y-114207250D01*
X172222000Y-114226750D01*
X172244000Y-114246750D01*
X172265000Y-114268250D01*
X172285000Y-114290750D01*
X172303500Y-114314250D01*
X172321000Y-114338250D01*
X172337000Y-114363750D01*
X172352000Y-114389250D01*
X172365500Y-114416250D01*
X172378000Y-114443250D01*
X172389000Y-114471250D01*
X172398500Y-114499750D01*
X172406500Y-114528250D01*
X172413000Y-114557250D01*
X172418500Y-114586750D01*
X172422000Y-114616750D01*
X172424500Y-114646250D01*
X172425000Y-114676250D01*
X172425000Y-115276250D01*
X172424500Y-115306250D01*
X172422000Y-115336250D01*
X172418500Y-115365750D01*
X172413000Y-115395250D01*
X172406500Y-115424250D01*
X172398500Y-115453250D01*
X172389000Y-115481750D01*
X172378000Y-115509250D01*
X172365500Y-115536750D01*
X172352000Y-115563250D01*
X172337000Y-115589250D01*
X172321000Y-115614250D01*
X172303500Y-115638750D01*
X172285000Y-115662250D01*
X172265000Y-115684250D01*
X172244000Y-115705750D01*
X172222000Y-115726250D01*
X172199000Y-115745250D01*
X172175500Y-115763750D01*
X172150500Y-115780250D01*
X172125000Y-115795750D01*
X172099000Y-115810250D01*
X172072000Y-115823250D01*
X172044500Y-115834750D01*
X172016000Y-115845250D01*
X171987500Y-115853750D01*
X171958500Y-115861250D01*
X171929500Y-115867250D01*
X171899500Y-115871750D01*
X171870000Y-115874750D01*
X171840000Y-115876250D01*
X171810000Y-115876250D01*
X171780500Y-115874750D01*
X171750500Y-115871750D01*
X171721000Y-115867250D01*
X171691500Y-115861250D01*
X171662500Y-115853750D01*
X171634000Y-115845250D01*
X171606000Y-115834750D01*
X171578500Y-115823250D01*
X171551500Y-115810250D01*
X171525000Y-115795750D01*
X171499500Y-115780250D01*
X171475000Y-115763750D01*
X171451000Y-115745250D01*
X171428000Y-115726250D01*
X171406000Y-115705750D01*
X171385500Y-115684250D01*
X171365500Y-115662250D01*
X171347000Y-115638750D01*
X171329500Y-115614250D01*
X171313000Y-115589250D01*
X171298000Y-115563250D01*
X171284500Y-115536750D01*
X171272000Y-115509250D01*
X171261500Y-115481750D01*
X171252000Y-115453250D01*
X171243500Y-115424250D01*
X171237000Y-115395250D01*
X171232000Y-115365750D01*
X171228000Y-115336250D01*
X171226000Y-115306250D01*
X171225000Y-115276250D01*
X171225000Y-114676250D01*
X171226000Y-114646250D01*
X171228000Y-114616750D01*
X171232000Y-114586750D01*
X171237000Y-114557250D01*
X171243500Y-114528250D01*
X171252000Y-114499750D01*
X171261500Y-114471250D01*
X171272000Y-114443250D01*
X171284500Y-114416250D01*
X171298000Y-114389250D01*
X171313000Y-114363750D01*
X171329500Y-114338250D01*
X171347000Y-114314250D01*
X171365500Y-114290750D01*
X171385500Y-114268250D01*
X171406000Y-114246750D01*
X171428000Y-114226750D01*
X171451000Y-114207250D01*
X171475000Y-114189250D01*
X171499500Y-114172250D01*
X171525000Y-114156750D01*
X171551500Y-114142250D01*
X171578500Y-114129250D01*
X171606000Y-114117750D01*
X171634000Y-114107750D01*
X171662500Y-114098750D01*
X171691500Y-114091250D01*
X171721000Y-114085250D01*
X171750500Y-114081250D01*
X171780500Y-114078250D01*
X171810000Y-114076750D01*
X171840000Y-114076750D01*
X171870000Y-114078250D01*
G37*
%TO.C,R20*%
G36*
X177950000Y-67705000D02*
G01*
X177950000Y-68505000D01*
X177900000Y-68555000D01*
X177658000Y-68555000D01*
X177658000Y-68185000D01*
X177328000Y-68185000D01*
X177328000Y-68555000D01*
X177100000Y-68555000D01*
X177050000Y-68505000D01*
X177050000Y-67705000D01*
X177100000Y-67655000D01*
X177900000Y-67655000D01*
X177950000Y-67705000D01*
G37*
G36*
X177342000Y-69615000D02*
G01*
X177672000Y-69615000D01*
X177672000Y-69245000D01*
X177900000Y-69245000D01*
X177950000Y-69295000D01*
X177950000Y-70095000D01*
X177900000Y-70145000D01*
X177100000Y-70145000D01*
X177050000Y-70095000D01*
X177050000Y-69295000D01*
X177100000Y-69245000D01*
X177342000Y-69245000D01*
X177342000Y-69615000D01*
G37*
%TO.C,R12*%
G36*
X173308500Y-60500000D02*
G01*
X173308500Y-60742000D01*
X172938500Y-60742000D01*
X172938500Y-61072000D01*
X173308500Y-61072000D01*
X173308500Y-61300000D01*
X173258500Y-61350000D01*
X172458500Y-61350000D01*
X172408500Y-61300000D01*
X172408500Y-60500000D01*
X172458500Y-60450000D01*
X173258500Y-60450000D01*
X173308500Y-60500000D01*
G37*
G36*
X174898500Y-60500000D02*
G01*
X174898500Y-61300000D01*
X174848500Y-61350000D01*
X174048500Y-61350000D01*
X173998500Y-61300000D01*
X173998500Y-61058000D01*
X174368500Y-61058000D01*
X174368500Y-60728000D01*
X173998500Y-60728000D01*
X173998500Y-60500000D01*
X174048500Y-60450000D01*
X174848500Y-60450000D01*
X174898500Y-60500000D01*
G37*
%TO.C,R11*%
G36*
X178011750Y-93856500D02*
G01*
X178011750Y-94656500D01*
X177961750Y-94706500D01*
X177719750Y-94706500D01*
X177719750Y-94336500D01*
X177389750Y-94336500D01*
X177389750Y-94706500D01*
X177161750Y-94706500D01*
X177111750Y-94656500D01*
X177111750Y-93856500D01*
X177161750Y-93806500D01*
X177961750Y-93806500D01*
X178011750Y-93856500D01*
G37*
G36*
X177403750Y-95766500D02*
G01*
X177733750Y-95766500D01*
X177733750Y-95396500D01*
X177961750Y-95396500D01*
X178011750Y-95446500D01*
X178011750Y-96246500D01*
X177961750Y-96296500D01*
X177161750Y-96296500D01*
X177111750Y-96246500D01*
X177111750Y-95446500D01*
X177161750Y-95396500D01*
X177403750Y-95396500D01*
X177403750Y-95766500D01*
G37*
%TO.C,R9*%
G36*
X162555000Y-101400000D02*
G01*
X162555000Y-101642000D01*
X162185000Y-101642000D01*
X162185000Y-101972000D01*
X162555000Y-101972000D01*
X162555000Y-102200000D01*
X162505000Y-102250000D01*
X161705000Y-102250000D01*
X161655000Y-102200000D01*
X161655000Y-101400000D01*
X161705000Y-101350000D01*
X162505000Y-101350000D01*
X162555000Y-101400000D01*
G37*
G36*
X164145000Y-101400000D02*
G01*
X164145000Y-102200000D01*
X164095000Y-102250000D01*
X163295000Y-102250000D01*
X163245000Y-102200000D01*
X163245000Y-101958000D01*
X163615000Y-101958000D01*
X163615000Y-101628000D01*
X163245000Y-101628000D01*
X163245000Y-101400000D01*
X163295000Y-101350000D01*
X164095000Y-101350000D01*
X164145000Y-101400000D01*
G37*
%TO.C,C4*%
G36*
X140690000Y-48845000D02*
G01*
X140690000Y-49995000D01*
X140640000Y-50045000D01*
X140230000Y-50050000D01*
X140230000Y-49600000D01*
X139780000Y-49600000D01*
X139780000Y-50040000D01*
X139360000Y-50045000D01*
X139310000Y-49995000D01*
X139310000Y-48845000D01*
X139360000Y-48795000D01*
X140640000Y-48795000D01*
X140690000Y-48845000D01*
G37*
G36*
X139770000Y-51400000D02*
G01*
X140220000Y-51400000D01*
X140220000Y-50960000D01*
X140640000Y-50955000D01*
X140690000Y-51005000D01*
X140690000Y-52155000D01*
X140640000Y-52205000D01*
X139360000Y-52205000D01*
X139310000Y-52155000D01*
X139310000Y-51005000D01*
X139360000Y-50955000D01*
X139770000Y-50950000D01*
X139770000Y-51400000D01*
G37*
%TO.C,R10*%
G36*
X162555000Y-103873500D02*
G01*
X162555000Y-104115500D01*
X162185000Y-104115500D01*
X162185000Y-104445500D01*
X162555000Y-104445500D01*
X162555000Y-104673500D01*
X162505000Y-104723500D01*
X161705000Y-104723500D01*
X161655000Y-104673500D01*
X161655000Y-103873500D01*
X161705000Y-103823500D01*
X162505000Y-103823500D01*
X162555000Y-103873500D01*
G37*
G36*
X164145000Y-103873500D02*
G01*
X164145000Y-104673500D01*
X164095000Y-104723500D01*
X163295000Y-104723500D01*
X163245000Y-104673500D01*
X163245000Y-104431500D01*
X163615000Y-104431500D01*
X163615000Y-104101500D01*
X163245000Y-104101500D01*
X163245000Y-103873500D01*
X163295000Y-103823500D01*
X164095000Y-103823500D01*
X164145000Y-103873500D01*
G37*
%TO.C,F1*%
G36*
X154996500Y-110850500D02*
G01*
X154996500Y-111805000D01*
X154896500Y-111905000D01*
X154618000Y-111905000D01*
X154518000Y-112005000D01*
X154518000Y-112995000D01*
X154618000Y-113095000D01*
X154896500Y-113095000D01*
X154996500Y-113195000D01*
X154996500Y-114149500D01*
X154896500Y-114249500D01*
X153690000Y-114249500D01*
X153590000Y-114149500D01*
X153590000Y-110850500D01*
X153690000Y-110750500D01*
X154896500Y-110750500D01*
X154996500Y-110850500D01*
G37*
G36*
X158703000Y-110850500D02*
G01*
X158703000Y-114149500D01*
X158603000Y-114249500D01*
X157396500Y-114249500D01*
X157296500Y-114149500D01*
X157296500Y-113195000D01*
X157396500Y-113095000D01*
X157675000Y-113095000D01*
X157775000Y-112995000D01*
X157775000Y-112005000D01*
X157675000Y-111905000D01*
X157396500Y-111905000D01*
X157296500Y-111805000D01*
X157296500Y-110850500D01*
X157396500Y-110750500D01*
X158603000Y-110750500D01*
X158703000Y-110850500D01*
G37*
%TO.C,R14*%
G36*
X178050000Y-87305000D02*
G01*
X178050000Y-88105000D01*
X178000000Y-88155000D01*
X177758000Y-88155000D01*
X177758000Y-87785000D01*
X177428000Y-87785000D01*
X177428000Y-88155000D01*
X177200000Y-88155000D01*
X177150000Y-88105000D01*
X177150000Y-87305000D01*
X177200000Y-87255000D01*
X178000000Y-87255000D01*
X178050000Y-87305000D01*
G37*
G36*
X177442000Y-89215000D02*
G01*
X177772000Y-89215000D01*
X177772000Y-88845000D01*
X178000000Y-88845000D01*
X178050000Y-88895000D01*
X178050000Y-89695000D01*
X178000000Y-89745000D01*
X177200000Y-89745000D01*
X177150000Y-89695000D01*
X177150000Y-88895000D01*
X177200000Y-88845000D01*
X177442000Y-88845000D01*
X177442000Y-89215000D01*
G37*
%TO.C,R8*%
G36*
X154108500Y-104136750D02*
G01*
X154108500Y-104378750D01*
X153738500Y-104378750D01*
X153738500Y-104708750D01*
X154108500Y-104708750D01*
X154108500Y-104936750D01*
X154058500Y-104986750D01*
X153258500Y-104986750D01*
X153208500Y-104936750D01*
X153208500Y-104136750D01*
X153258500Y-104086750D01*
X154058500Y-104086750D01*
X154108500Y-104136750D01*
G37*
G36*
X155698500Y-104136750D02*
G01*
X155698500Y-104936750D01*
X155648500Y-104986750D01*
X154848500Y-104986750D01*
X154798500Y-104936750D01*
X154798500Y-104694750D01*
X155168500Y-104694750D01*
X155168500Y-104364750D01*
X154798500Y-104364750D01*
X154798500Y-104136750D01*
X154848500Y-104086750D01*
X155648500Y-104086750D01*
X155698500Y-104136750D01*
G37*
%TO.C,R5*%
G36*
X150855000Y-91200000D02*
G01*
X150855000Y-91442000D01*
X150485000Y-91442000D01*
X150485000Y-91772000D01*
X150855000Y-91772000D01*
X150855000Y-92000000D01*
X150805000Y-92050000D01*
X150005000Y-92050000D01*
X149955000Y-92000000D01*
X149955000Y-91200000D01*
X150005000Y-91150000D01*
X150805000Y-91150000D01*
X150855000Y-91200000D01*
G37*
G36*
X152445000Y-91200000D02*
G01*
X152445000Y-92000000D01*
X152395000Y-92050000D01*
X151595000Y-92050000D01*
X151545000Y-92000000D01*
X151545000Y-91758000D01*
X151915000Y-91758000D01*
X151915000Y-91428000D01*
X151545000Y-91428000D01*
X151545000Y-91200000D01*
X151595000Y-91150000D01*
X152395000Y-91150000D01*
X152445000Y-91200000D01*
G37*
%TO.C,R16*%
G36*
X147801500Y-83200000D02*
G01*
X147801500Y-83442000D01*
X147431500Y-83442000D01*
X147431500Y-83772000D01*
X147801500Y-83772000D01*
X147801500Y-84000000D01*
X147751500Y-84050000D01*
X146951500Y-84050000D01*
X146901500Y-84000000D01*
X146901500Y-83200000D01*
X146951500Y-83150000D01*
X147751500Y-83150000D01*
X147801500Y-83200000D01*
G37*
G36*
X149391500Y-83200000D02*
G01*
X149391500Y-84000000D01*
X149341500Y-84050000D01*
X148541500Y-84050000D01*
X148491500Y-84000000D01*
X148491500Y-83758000D01*
X148861500Y-83758000D01*
X148861500Y-83428000D01*
X148491500Y-83428000D01*
X148491500Y-83200000D01*
X148541500Y-83150000D01*
X149341500Y-83150000D01*
X149391500Y-83200000D01*
G37*
%TD*%
D11*
%TO.C,U13*%
X179400000Y-89250000D03*
X179400000Y-87550000D03*
%TD*%
D12*
%TO.C,U5*%
X172600000Y-52280000D03*
X172600000Y-51340000D03*
X172600000Y-50400000D03*
X171430000Y-50400000D03*
X171430000Y-51340000D03*
X171430000Y-52280000D03*
%TD*%
D13*
%TO.C,R1*%
X176942933Y-101442933D03*
X176942933Y-103442933D03*
%TD*%
D14*
%TO.C,C2*%
X158900000Y-81500000D03*
X160300000Y-81500000D03*
%TD*%
D15*
%TO.C,R17*%
X147900000Y-76500000D03*
X146393000Y-76500000D03*
%TD*%
D16*
%TO.C,RESET1*%
X153600000Y-83950000D03*
X162000000Y-83950000D03*
X153600000Y-88450000D03*
X162000000Y-88450000D03*
%TD*%
D15*
%TO.C,U11*%
X129346500Y-59600000D03*
X130853500Y-59600000D03*
%TD*%
D17*
%TO.C,USB4*%
X185650000Y-74904250D03*
X186450000Y-74904250D03*
X187750000Y-74904250D03*
X188750000Y-74904250D03*
X189250000Y-74904250D03*
X190249500Y-74904250D03*
X191550000Y-74904250D03*
X192350000Y-74904250D03*
X192050000Y-74904250D03*
X191250000Y-74904250D03*
X190750000Y-74904250D03*
X189750000Y-74904250D03*
X188250000Y-74904250D03*
X187250000Y-74904250D03*
X186750000Y-74904250D03*
X185950000Y-74904250D03*
%TD*%
D18*
%TO.C,D1*%
X166550000Y-104149000D03*
X167500000Y-104149000D03*
X168450000Y-104149000D03*
X168450000Y-101851000D03*
X167500000Y-101851000D03*
X166550000Y-101851000D03*
%TD*%
D15*
%TO.C,U10*%
X147900000Y-74500000D03*
X146393000Y-74500000D03*
%TD*%
D19*
%TO.C,REF\u002A\u002A*%
X186350000Y-69250000D03*
X189000000Y-69250000D03*
X191650000Y-69250000D03*
%TD*%
D15*
%TO.C,R7*%
X153700000Y-102063250D03*
X155207000Y-102063250D03*
%TD*%
D17*
%TO.C,USB4*%
X185650000Y-90650000D03*
X186450000Y-90650000D03*
X187750000Y-90650000D03*
X188750000Y-90650000D03*
X189250000Y-90650000D03*
X190249500Y-90650000D03*
X191550000Y-90650000D03*
X192350000Y-90650000D03*
X192050000Y-90650000D03*
X191250000Y-90650000D03*
X190750000Y-90650000D03*
X189750000Y-90650000D03*
X188250000Y-90650000D03*
X187250000Y-90650000D03*
X186750000Y-90650000D03*
X185950000Y-90650000D03*
%TD*%
D14*
%TO.C,C6*%
X173600000Y-55500000D03*
X175000000Y-55500000D03*
%TD*%
D11*
%TO.C,U14*%
X179500000Y-76350000D03*
X179500000Y-74650000D03*
%TD*%
D15*
%TO.C,U16*%
X176846500Y-61100000D03*
X178353500Y-61100000D03*
%TD*%
D14*
%TO.C,C7*%
X190650000Y-57206000D03*
X189250000Y-57206000D03*
%TD*%
D17*
%TO.C,USB4*%
X185650000Y-106447111D03*
X186450000Y-106447111D03*
X187750000Y-106447111D03*
X188750000Y-106447111D03*
X189250000Y-106447111D03*
X190249500Y-106447111D03*
X191550000Y-106447111D03*
X192350000Y-106447111D03*
X192050000Y-106447111D03*
X191250000Y-106447111D03*
X190750000Y-106447111D03*
X189750000Y-106447111D03*
X188250000Y-106447111D03*
X187250000Y-106447111D03*
X186750000Y-106447111D03*
X185950000Y-106447111D03*
%TD*%
D20*
%TO.C,R19*%
X177600000Y-76353500D03*
X177600000Y-74846500D03*
%TD*%
%TO.C,R13*%
X177600000Y-82653500D03*
X177600000Y-81146500D03*
%TD*%
%TO.C,R3*%
X135900000Y-55293000D03*
X135900000Y-56800000D03*
%TD*%
D15*
%TO.C,R6*%
X151853500Y-93500000D03*
X150346500Y-93500000D03*
%TD*%
D11*
%TO.C,U15*%
X179538250Y-69645000D03*
X179538250Y-67945000D03*
%TD*%
D21*
%TO.C,U12*%
X190450000Y-59406000D03*
X189510000Y-59406000D03*
X188570000Y-59406000D03*
X188570000Y-60576000D03*
X189510000Y-60576000D03*
X190450000Y-60576000D03*
%TD*%
D15*
%TO.C,R18*%
X129346500Y-57500000D03*
X130853500Y-57500000D03*
%TD*%
D22*
%TO.C,C1*%
X137900000Y-56746500D03*
X137900000Y-55346500D03*
%TD*%
D23*
%TO.C,U6*%
X149470000Y-114800000D03*
X149470000Y-112500000D03*
X149470000Y-110200000D03*
D24*
X143530000Y-112500000D03*
%TD*%
D16*
%TO.C,BOOT1*%
X162000000Y-79050000D03*
X153600000Y-79050000D03*
X162000000Y-74550000D03*
X153600000Y-74550000D03*
%TD*%
D15*
%TO.C,R15*%
X150753500Y-98500000D03*
X149246500Y-98500000D03*
%TD*%
D22*
%TO.C,C5*%
X137500000Y-49600000D03*
X137500000Y-51000000D03*
%TD*%
D15*
%TO.C,R4*%
X155146500Y-81500000D03*
X156653500Y-81500000D03*
%TD*%
D13*
%TO.C,R2*%
X173956433Y-103442933D03*
X173956433Y-101442933D03*
%TD*%
D25*
%TO.C,Q2*%
X151388500Y-104213250D03*
X151388500Y-102313250D03*
X149118500Y-103263250D03*
%TD*%
D15*
%TO.C,U9*%
X148900000Y-81600000D03*
X147393000Y-81600000D03*
%TD*%
D26*
%TO.C,USB5*%
X133971750Y-62500000D03*
X133971750Y-63300000D03*
X133971750Y-64600000D03*
X133971750Y-65600000D03*
X133971750Y-66100000D03*
X133971750Y-67099500D03*
X133971750Y-68400000D03*
X133971750Y-69200000D03*
X133971750Y-68900000D03*
X133971750Y-68100000D03*
X133971750Y-67600000D03*
X133971750Y-66600000D03*
X133971750Y-65100000D03*
X133971750Y-64100000D03*
X133971750Y-63600000D03*
X133971750Y-62800000D03*
%TD*%
D15*
%TO.C,U8*%
X150753500Y-96500000D03*
X149246500Y-96500000D03*
%TD*%
D17*
%TO.C,USB1*%
X164150000Y-110028250D03*
X164950000Y-110028250D03*
X166250000Y-110028250D03*
X167250000Y-110028250D03*
X167750000Y-110028250D03*
X168749500Y-110028250D03*
X170050000Y-110028250D03*
X170850000Y-110028250D03*
X170550000Y-110028250D03*
X169750000Y-110028250D03*
X169250000Y-110028250D03*
X168250000Y-110028250D03*
X166750000Y-110028250D03*
X165750000Y-110028250D03*
X165250000Y-110028250D03*
X164450000Y-110028250D03*
%TD*%
D19*
%TO.C,REF\u002A\u002A*%
X186350000Y-84995750D03*
X189000000Y-84995750D03*
X191650000Y-84995750D03*
%TD*%
D27*
%TO.C,C3*%
X139804000Y-114500000D03*
X136196000Y-114500000D03*
%TD*%
D11*
%TO.C,U4*%
X179500000Y-82650000D03*
X179500000Y-80950000D03*
%TD*%
D25*
%TO.C,Q1*%
X148435000Y-93550000D03*
X148435000Y-91650000D03*
X146165000Y-92600000D03*
%TD*%
D19*
%TO.C,REF\u002A\u002A*%
X186350000Y-100792861D03*
X189000000Y-100792861D03*
X191650000Y-100792861D03*
%TD*%
D20*
%TO.C,R20*%
X177500000Y-69653500D03*
X177500000Y-68146500D03*
%TD*%
D15*
%TO.C,R12*%
X172900000Y-60900000D03*
X174407000Y-60900000D03*
%TD*%
D20*
%TO.C,R11*%
X177561750Y-95805000D03*
X177561750Y-94298000D03*
%TD*%
D28*
%TO.C,U2*%
X176850000Y-59000000D03*
X178550000Y-59000000D03*
%TD*%
D15*
%TO.C,R9*%
X162146500Y-101800000D03*
X163653500Y-101800000D03*
%TD*%
D29*
%TO.C,C4*%
X140000000Y-49500000D03*
X140000000Y-51500000D03*
%TD*%
D15*
%TO.C,R10*%
X162146500Y-104273500D03*
X163653500Y-104273500D03*
%TD*%
D28*
%TO.C,U3*%
X172903500Y-59000000D03*
X174603500Y-59000000D03*
%TD*%
D30*
%TO.C,F1*%
X158000000Y-112500000D03*
X154293000Y-112500000D03*
%TD*%
D20*
%TO.C,R14*%
X177600000Y-89253500D03*
X177600000Y-87746500D03*
%TD*%
D15*
%TO.C,R8*%
X153700000Y-104536750D03*
X155207000Y-104536750D03*
%TD*%
%TO.C,R5*%
X150446500Y-91600000D03*
X151953500Y-91600000D03*
%TD*%
D31*
%TO.C,U7*%
X162871000Y-97925000D03*
X162871000Y-97275000D03*
X162871000Y-96625000D03*
X162871000Y-95975000D03*
X162871000Y-95325000D03*
X162871000Y-94675000D03*
X162871000Y-94025000D03*
X162871000Y-93375000D03*
X162871000Y-92725000D03*
X162871000Y-92075000D03*
X157129000Y-92075000D03*
X157129000Y-92725000D03*
X157129000Y-93375000D03*
X157129000Y-94025000D03*
X157129000Y-94675000D03*
X157129000Y-95325000D03*
X157129000Y-95975000D03*
X157129000Y-96625000D03*
X157129000Y-97275000D03*
X157129000Y-97925000D03*
%TD*%
D32*
%TO.C,U1*%
X145500000Y-49007717D03*
X145500000Y-50277717D03*
X145500000Y-51547717D03*
X145500000Y-52817717D03*
X145500000Y-54087717D03*
X145500000Y-55357717D03*
X145500000Y-56627717D03*
X145500000Y-57897717D03*
X145500000Y-59167717D03*
X145500000Y-60437717D03*
X145500000Y-61707717D03*
X145500000Y-62977717D03*
X145500000Y-64247717D03*
X145500000Y-65517717D03*
D33*
X147265000Y-66797717D03*
X148535000Y-66797717D03*
X149805000Y-66797717D03*
X151075000Y-66797717D03*
X152345000Y-66797717D03*
X153615000Y-66797717D03*
X154885000Y-66797717D03*
X156155000Y-66797717D03*
X157425000Y-66797717D03*
X158695000Y-66797717D03*
X159965000Y-66797717D03*
X161235000Y-66767717D03*
D32*
X163000000Y-65517717D03*
X163000000Y-64247717D03*
X163000000Y-62977717D03*
X163000000Y-61707717D03*
X163000000Y-60437717D03*
X163000000Y-59167717D03*
X163000000Y-57897717D03*
X163000000Y-56627717D03*
X163000000Y-55357717D03*
X163000000Y-54087717D03*
X163000000Y-52817717D03*
X163000000Y-51547717D03*
X163000000Y-50277717D03*
X163000000Y-49007717D03*
D34*
X151350000Y-55327717D03*
X151350000Y-56727717D03*
X151350000Y-58127717D03*
X152750000Y-55327717D03*
X152750000Y-56727717D03*
X152750000Y-58127717D03*
X154150000Y-55327717D03*
X154150000Y-56727717D03*
X154150000Y-58127717D03*
%TD*%
D15*
%TO.C,R16*%
X148900000Y-83600000D03*
X147393000Y-83600000D03*
%TD*%
D35*
%TO.C,CAP1*%
X137000000Y-110000000D03*
X139000000Y-110000000D03*
%TD*%
D11*
%TO.C,U17*%
X179500000Y-95850000D03*
X179500000Y-94150000D03*
%TD*%
D25*
%TO.C,Q3*%
X160135000Y-104150000D03*
X160135000Y-102250000D03*
X157865000Y-103200000D03*
%TD*%
M02*
