%TF.GenerationSoftware,KiCad,Pcbnew,9.0.7*%
%TF.CreationDate,2026-04-19T16:57:14-07:00*%
%TF.ProjectId,Light_Jacket_rev0_2,4c696768-745f-44a6-9163-6b65745f7265,rev?*%
%TF.SameCoordinates,Original*%
%TF.FileFunction,Soldermask,Top*%
%TF.FilePolarity,Negative*%
%FSLAX46Y46*%
G04 Gerber Fmt 4.6, Leading zero omitted, Abs format (unit mm)*
G04 Created by KiCad (PCBNEW 9.0.7) date 2026-04-19 16:57:14*
%MOMM*%
%LPD*%
G01*
G04 APERTURE LIST*
G04 Aperture macros list*
%AMFreePoly0*
4,1,41,1.150000,0.845907,1.233315,0.845907,1.396742,0.813399,1.550687,0.749633,1.689234,0.657059,1.807059,0.539234,1.899633,0.400687,1.963399,0.246742,1.995907,0.083315,1.995907,-0.083315,1.963399,-0.246742,1.899633,-0.400687,1.807059,-0.539234,1.689234,-0.657059,1.550687,-0.749633,1.396742,-0.813399,1.233315,-0.845907,1.150000,-0.845907,1.150000,-0.850000,-1.150000,-0.850000,
-1.150000,-0.845907,-1.233315,-0.845907,-1.396742,-0.813399,-1.550687,-0.749633,-1.689234,-0.657059,-1.807059,-0.539234,-1.899633,-0.400687,-1.963399,-0.246742,-1.995907,-0.083315,-1.995907,0.083315,-1.963399,0.246742,-1.899633,0.400687,-1.807059,0.539234,-1.689234,0.657059,-1.550687,0.749633,-1.396742,0.813399,-1.233315,0.845907,-1.150000,0.845907,-1.150000,0.850000,1.150000,0.850000,
1.150000,0.845907,1.150000,0.845907,$1*%
G04 Aperture macros list end*
%ADD10R,1.000000X0.900000*%
%ADD11R,0.570000X0.640000*%
%ADD12R,1.377000X1.132500*%
%ADD13R,0.800000X0.900000*%
%ADD14R,0.806500X0.864000*%
%ADD15C,1.500000*%
%ADD16R,1.800000X1.000000*%
%ADD17O,1.200000X2.000000*%
%ADD18O,1.200000X1.800000*%
%ADD19R,0.300000X1.300000*%
%ADD20R,0.532000X1.072000*%
%ADD21FreePoly0,90.000000*%
%ADD22C,0.800000*%
%ADD23C,6.400000*%
%ADD24R,0.864000X0.806500*%
%ADD25R,0.640000X0.570000*%
%ADD26R,0.900000X0.800000*%
%ADD27R,2.500000X1.100000*%
%ADD28R,2.340000X3.600000*%
%ADD29R,1.070000X0.532000*%
%ADD30O,2.000000X1.200000*%
%ADD31O,1.800000X1.200000*%
%ADD32R,1.300000X0.300000*%
%ADD33R,1.607500X2.376000*%
%ADD34R,0.900000X1.000000*%
%ADD35R,1.350000X1.410000*%
%ADD36R,1.406500X3.499000*%
%ADD37O,1.742000X0.364000*%
%ADD38R,1.600000X1.600000*%
%ADD39C,1.600000*%
%ADD40C,3.000000*%
%ADD41R,1.500000X0.900000*%
%ADD42R,0.900000X1.500000*%
%ADD43R,0.900000X0.900000*%
%ADD44R,1.100000X1.300000*%
G04 APERTURE END LIST*
D10*
%TO.C,U13*%
X179400000Y-89250000D03*
X179400000Y-87550000D03*
%TD*%
D11*
%TO.C,U5*%
X172600000Y-52280000D03*
X172600000Y-51340000D03*
X172600000Y-50400000D03*
X171430000Y-50400000D03*
X171430000Y-51340000D03*
X171430000Y-52280000D03*
%TD*%
D12*
%TO.C,R1*%
X176942933Y-101442933D03*
X176942933Y-103442933D03*
%TD*%
D13*
%TO.C,C2*%
X158900000Y-81500000D03*
X160300000Y-81500000D03*
%TD*%
D14*
%TO.C,R17*%
X147900000Y-76500000D03*
X146393000Y-76500000D03*
%TD*%
D15*
%TO.C,TP14*%
X166500000Y-91200000D03*
%TD*%
%TO.C,TP29*%
X192800000Y-65376000D03*
%TD*%
D16*
%TO.C,RESET1*%
X153600000Y-83950000D03*
X162000000Y-83950000D03*
X153600000Y-88450000D03*
X162000000Y-88450000D03*
%TD*%
D15*
%TO.C,TP2*%
X145900000Y-85800000D03*
%TD*%
D14*
%TO.C,U11*%
X129346500Y-59600000D03*
X130853500Y-59600000D03*
%TD*%
D17*
%TO.C,USB4*%
X184675000Y-75672250D03*
X193325000Y-75672250D03*
D18*
X193325000Y-79852250D03*
X184675000Y-79852250D03*
D19*
X185650000Y-74904250D03*
X186450000Y-74904250D03*
X187750000Y-74904250D03*
X188750000Y-74904250D03*
X189250000Y-74904250D03*
X190249500Y-74904250D03*
X191550000Y-74904250D03*
X192350000Y-74904250D03*
X192050000Y-74904250D03*
X191250000Y-74904250D03*
X190750000Y-74904250D03*
X189750000Y-74904250D03*
X188250000Y-74904250D03*
X187250000Y-74904250D03*
X186750000Y-74904250D03*
X185950000Y-74904250D03*
%TD*%
D15*
%TO.C,TP22*%
X134450000Y-109850000D03*
%TD*%
D20*
%TO.C,D1*%
X166550000Y-104149000D03*
X167500000Y-104149000D03*
X168450000Y-104149000D03*
X168450000Y-101851000D03*
X167500000Y-101851000D03*
X166550000Y-101851000D03*
%TD*%
D15*
%TO.C,TP8*%
X147200000Y-88200000D03*
%TD*%
D14*
%TO.C,U10*%
X147900000Y-74500000D03*
X146393000Y-74500000D03*
%TD*%
D21*
%TO.C,REF\u002A\u002A*%
X186350000Y-69250000D03*
X189000000Y-69250000D03*
X191650000Y-69250000D03*
%TD*%
D14*
%TO.C,R7*%
X153700000Y-102063250D03*
X155207000Y-102063250D03*
%TD*%
D17*
%TO.C,USB4*%
X184675000Y-91418000D03*
X193325000Y-91418000D03*
D18*
X193325000Y-95598000D03*
X184675000Y-95598000D03*
D19*
X185650000Y-90650000D03*
X186450000Y-90650000D03*
X187750000Y-90650000D03*
X188750000Y-90650000D03*
X189250000Y-90650000D03*
X190249500Y-90650000D03*
X191550000Y-90650000D03*
X192350000Y-90650000D03*
X192050000Y-90650000D03*
X191250000Y-90650000D03*
X190750000Y-90650000D03*
X189750000Y-90650000D03*
X188250000Y-90650000D03*
X187250000Y-90650000D03*
X186750000Y-90650000D03*
X185950000Y-90650000D03*
%TD*%
D13*
%TO.C,C6*%
X173600000Y-55500000D03*
X175000000Y-55500000D03*
%TD*%
D10*
%TO.C,U14*%
X179500000Y-76350000D03*
X179500000Y-74650000D03*
%TD*%
D15*
%TO.C,TP26*%
X185550000Y-65376000D03*
%TD*%
%TO.C,TP18*%
X175400000Y-65500000D03*
%TD*%
D14*
%TO.C,U16*%
X176846500Y-61100000D03*
X178353500Y-61100000D03*
%TD*%
D13*
%TO.C,C7*%
X190650000Y-57206000D03*
X189250000Y-57206000D03*
%TD*%
D17*
%TO.C,USB4*%
X184675000Y-107215111D03*
X193325000Y-107215111D03*
D18*
X193325000Y-111395111D03*
X184675000Y-111395111D03*
D19*
X185650000Y-106447111D03*
X186450000Y-106447111D03*
X187750000Y-106447111D03*
X188750000Y-106447111D03*
X189250000Y-106447111D03*
X190249500Y-106447111D03*
X191550000Y-106447111D03*
X192350000Y-106447111D03*
X192050000Y-106447111D03*
X191250000Y-106447111D03*
X190750000Y-106447111D03*
X189750000Y-106447111D03*
X188250000Y-106447111D03*
X187250000Y-106447111D03*
X186750000Y-106447111D03*
X185950000Y-106447111D03*
%TD*%
D22*
%TO.C,REF\u002A\u002A*%
X175100000Y-51500000D03*
X175802944Y-49802944D03*
X175802944Y-53197056D03*
X177500000Y-49100000D03*
D23*
X177500000Y-51500000D03*
D22*
X177500000Y-53900000D03*
X179197056Y-49802944D03*
X179197056Y-53197056D03*
X179900000Y-51500000D03*
%TD*%
D15*
%TO.C,TP1*%
X145700000Y-97200000D03*
%TD*%
%TO.C,TP9*%
X159400000Y-106400000D03*
%TD*%
%TO.C,TP3*%
X145200000Y-71700000D03*
%TD*%
D24*
%TO.C,R19*%
X177600000Y-76353500D03*
X177600000Y-74846500D03*
%TD*%
%TO.C,R13*%
X177600000Y-82653500D03*
X177600000Y-81146500D03*
%TD*%
%TO.C,R3*%
X135900000Y-55293000D03*
X135900000Y-56800000D03*
%TD*%
D15*
%TO.C,TP15*%
X141600000Y-56000000D03*
%TD*%
%TO.C,TP4*%
X136650000Y-61150000D03*
%TD*%
D14*
%TO.C,R6*%
X151853500Y-93500000D03*
X150346500Y-93500000D03*
%TD*%
D15*
%TO.C,TP21*%
X169200000Y-49000000D03*
%TD*%
D10*
%TO.C,U15*%
X179538250Y-69645000D03*
X179538250Y-67945000D03*
%TD*%
D25*
%TO.C,U12*%
X190450000Y-59406000D03*
X189510000Y-59406000D03*
X188570000Y-59406000D03*
X188570000Y-60576000D03*
X189510000Y-60576000D03*
X190450000Y-60576000D03*
%TD*%
D15*
%TO.C,TP12*%
X169600000Y-84300000D03*
%TD*%
D14*
%TO.C,R18*%
X129346500Y-57500000D03*
X130853500Y-57500000D03*
%TD*%
D26*
%TO.C,C1*%
X137900000Y-56746500D03*
X137900000Y-55346500D03*
%TD*%
D27*
%TO.C,U6*%
X149470000Y-114800000D03*
X149470000Y-112500000D03*
X149470000Y-110200000D03*
D28*
X143530000Y-112500000D03*
%TD*%
D16*
%TO.C,BOOT1*%
X162000000Y-79050000D03*
X153600000Y-79050000D03*
X162000000Y-74550000D03*
X153600000Y-74550000D03*
%TD*%
D14*
%TO.C,R15*%
X150753500Y-98500000D03*
X149246500Y-98500000D03*
%TD*%
D15*
%TO.C,TP20*%
X169400000Y-52900000D03*
%TD*%
%TO.C,TP16*%
X166300000Y-52600000D03*
%TD*%
%TO.C,TP7*%
X146950000Y-101750000D03*
%TD*%
D26*
%TO.C,C5*%
X137500000Y-49600000D03*
X137500000Y-51000000D03*
%TD*%
D15*
%TO.C,TP28*%
X177500000Y-56200000D03*
%TD*%
%TO.C,TP10*%
X147000000Y-104650000D03*
%TD*%
%TO.C,TP19*%
X178050000Y-98850000D03*
%TD*%
D14*
%TO.C,R4*%
X155146500Y-81500000D03*
X156653500Y-81500000D03*
%TD*%
D12*
%TO.C,R2*%
X173956433Y-103442933D03*
X173956433Y-101442933D03*
%TD*%
D29*
%TO.C,Q2*%
X151388500Y-104213250D03*
X151388500Y-102313250D03*
X149118500Y-103263250D03*
%TD*%
D14*
%TO.C,U9*%
X148900000Y-81600000D03*
X147393000Y-81600000D03*
%TD*%
D30*
%TO.C,USB5*%
X133203750Y-61525000D03*
X133203750Y-70175000D03*
D31*
X129023750Y-70175000D03*
X129023750Y-61525000D03*
D32*
X133971750Y-62500000D03*
X133971750Y-63300000D03*
X133971750Y-64600000D03*
X133971750Y-65600000D03*
X133971750Y-66100000D03*
X133971750Y-67099500D03*
X133971750Y-68400000D03*
X133971750Y-69200000D03*
X133971750Y-68900000D03*
X133971750Y-68100000D03*
X133971750Y-67600000D03*
X133971750Y-66600000D03*
X133971750Y-65100000D03*
X133971750Y-64100000D03*
X133971750Y-63600000D03*
X133971750Y-62800000D03*
%TD*%
D14*
%TO.C,U8*%
X150753500Y-96500000D03*
X149246500Y-96500000D03*
%TD*%
D15*
%TO.C,TP11*%
X171850000Y-98150000D03*
%TD*%
D17*
%TO.C,USB1*%
X163175000Y-110796250D03*
X171825000Y-110796250D03*
D18*
X171825000Y-114976250D03*
X163175000Y-114976250D03*
D19*
X164150000Y-110028250D03*
X164950000Y-110028250D03*
X166250000Y-110028250D03*
X167250000Y-110028250D03*
X167750000Y-110028250D03*
X168749500Y-110028250D03*
X170050000Y-110028250D03*
X170850000Y-110028250D03*
X170550000Y-110028250D03*
X169750000Y-110028250D03*
X169250000Y-110028250D03*
X168250000Y-110028250D03*
X166750000Y-110028250D03*
X165750000Y-110028250D03*
X165250000Y-110028250D03*
X164450000Y-110028250D03*
%TD*%
D21*
%TO.C,REF\u002A\u002A*%
X186350000Y-84995750D03*
X189000000Y-84995750D03*
X191650000Y-84995750D03*
%TD*%
D33*
%TO.C,C3*%
X139804000Y-114500000D03*
X136196000Y-114500000D03*
%TD*%
D10*
%TO.C,U4*%
X179500000Y-82650000D03*
X179500000Y-80950000D03*
%TD*%
D29*
%TO.C,Q1*%
X148435000Y-93550000D03*
X148435000Y-91650000D03*
X146165000Y-92600000D03*
%TD*%
D21*
%TO.C,REF\u002A\u002A*%
X186350000Y-100792861D03*
X189000000Y-100792861D03*
X191650000Y-100792861D03*
%TD*%
D24*
%TO.C,R20*%
X177500000Y-69653500D03*
X177500000Y-68146500D03*
%TD*%
D15*
%TO.C,TP24*%
X192750000Y-53976000D03*
%TD*%
D14*
%TO.C,R12*%
X172900000Y-60900000D03*
X174407000Y-60900000D03*
%TD*%
D15*
%TO.C,TP27*%
X185350000Y-53976000D03*
%TD*%
D24*
%TO.C,R11*%
X177561750Y-95805000D03*
X177561750Y-94298000D03*
%TD*%
D34*
%TO.C,U2*%
X176850000Y-59000000D03*
X178550000Y-59000000D03*
%TD*%
D14*
%TO.C,R9*%
X162146500Y-101800000D03*
X163653500Y-101800000D03*
%TD*%
D22*
%TO.C,REF\u002A\u002A*%
X128100000Y-51500000D03*
X128802944Y-49802944D03*
X128802944Y-53197056D03*
X130500000Y-49100000D03*
D23*
X130500000Y-51500000D03*
D22*
X130500000Y-53900000D03*
X132197056Y-49802944D03*
X132197056Y-53197056D03*
X132900000Y-51500000D03*
%TD*%
D15*
%TO.C,TP25*%
X189250000Y-53976000D03*
%TD*%
D35*
%TO.C,C4*%
X140000000Y-49500000D03*
X140000000Y-51500000D03*
%TD*%
D14*
%TO.C,R10*%
X162146500Y-104273500D03*
X163653500Y-104273500D03*
%TD*%
D15*
%TO.C,TP5*%
X168200000Y-66500000D03*
%TD*%
%TO.C,TP30*%
X189250000Y-65376000D03*
%TD*%
D34*
%TO.C,U3*%
X172903500Y-59000000D03*
X174603500Y-59000000D03*
%TD*%
D36*
%TO.C,F1*%
X158000000Y-112500000D03*
X154293000Y-112500000D03*
%TD*%
D15*
%TO.C,TP6*%
X170800000Y-100550000D03*
%TD*%
%TO.C,TP17*%
X168400000Y-57900000D03*
%TD*%
D22*
%TO.C,REF\u002A\u002A*%
X175100000Y-113500000D03*
X175802944Y-111802944D03*
X175802944Y-115197056D03*
X177500000Y-111100000D03*
D23*
X177500000Y-113500000D03*
D22*
X177500000Y-115900000D03*
X179197056Y-111802944D03*
X179197056Y-115197056D03*
X179900000Y-113500000D03*
%TD*%
D24*
%TO.C,R14*%
X177600000Y-89253500D03*
X177600000Y-87746500D03*
%TD*%
D14*
%TO.C,R8*%
X153700000Y-104536750D03*
X155207000Y-104536750D03*
%TD*%
%TO.C,R5*%
X150446500Y-91600000D03*
X151953500Y-91600000D03*
%TD*%
D37*
%TO.C,U7*%
X162871000Y-97925000D03*
X162871000Y-97275000D03*
X162871000Y-96625000D03*
X162871000Y-95975000D03*
X162871000Y-95325000D03*
X162871000Y-94675000D03*
X162871000Y-94025000D03*
X162871000Y-93375000D03*
X162871000Y-92725000D03*
X162871000Y-92075000D03*
X157129000Y-92075000D03*
X157129000Y-92725000D03*
X157129000Y-93375000D03*
X157129000Y-94025000D03*
X157129000Y-94675000D03*
X157129000Y-95325000D03*
X157129000Y-95975000D03*
X157129000Y-96625000D03*
X157129000Y-97275000D03*
X157129000Y-97925000D03*
%TD*%
D38*
%TO.C,USB3*%
X141800000Y-95500000D03*
D39*
X141800000Y-98000000D03*
X141800000Y-100000000D03*
X141800000Y-102500000D03*
D38*
X139200000Y-95500000D03*
D39*
X139200000Y-98000000D03*
X139200000Y-100000000D03*
X139200000Y-102500000D03*
D40*
X142200000Y-92450000D03*
X142200000Y-105550000D03*
X136500000Y-92450000D03*
X136500000Y-105550000D03*
%TD*%
D38*
%TO.C,USB2*%
X141800000Y-77500000D03*
D39*
X141800000Y-80000000D03*
X141800000Y-82000000D03*
X141800000Y-84500000D03*
D38*
X139200000Y-77500000D03*
D39*
X139200000Y-80000000D03*
X139200000Y-82000000D03*
X139200000Y-84500000D03*
D40*
X142200000Y-74450000D03*
X142200000Y-87550000D03*
X136500000Y-74450000D03*
X136500000Y-87550000D03*
%TD*%
D41*
%TO.C,U1*%
X145500000Y-49007717D03*
X145500000Y-50277717D03*
X145500000Y-51547717D03*
X145500000Y-52817717D03*
X145500000Y-54087717D03*
X145500000Y-55357717D03*
X145500000Y-56627717D03*
X145500000Y-57897717D03*
X145500000Y-59167717D03*
X145500000Y-60437717D03*
X145500000Y-61707717D03*
X145500000Y-62977717D03*
X145500000Y-64247717D03*
X145500000Y-65517717D03*
D42*
X147265000Y-66797717D03*
X148535000Y-66797717D03*
X149805000Y-66797717D03*
X151075000Y-66797717D03*
X152345000Y-66797717D03*
X153615000Y-66797717D03*
X154885000Y-66797717D03*
X156155000Y-66797717D03*
X157425000Y-66797717D03*
X158695000Y-66797717D03*
X159965000Y-66797717D03*
X161235000Y-66767717D03*
D41*
X163000000Y-65517717D03*
X163000000Y-64247717D03*
X163000000Y-62977717D03*
X163000000Y-61707717D03*
X163000000Y-60437717D03*
X163000000Y-59167717D03*
X163000000Y-57897717D03*
X163000000Y-56627717D03*
X163000000Y-55357717D03*
X163000000Y-54087717D03*
X163000000Y-52817717D03*
X163000000Y-51547717D03*
X163000000Y-50277717D03*
X163000000Y-49007717D03*
D43*
X151350000Y-55327717D03*
X151350000Y-56727717D03*
X151350000Y-58127717D03*
X152750000Y-55327717D03*
X152750000Y-56727717D03*
X152750000Y-58127717D03*
X154150000Y-55327717D03*
X154150000Y-56727717D03*
X154150000Y-58127717D03*
%TD*%
D15*
%TO.C,TP23*%
X179400000Y-106700000D03*
%TD*%
%TO.C,TP13*%
X166400000Y-79100000D03*
%TD*%
D14*
%TO.C,R16*%
X148900000Y-83600000D03*
X147393000Y-83600000D03*
%TD*%
D44*
%TO.C,CAP1*%
X137000000Y-110000000D03*
X139000000Y-110000000D03*
%TD*%
D22*
%TO.C,REF\u002A\u002A*%
X128100000Y-113500000D03*
X128802944Y-111802944D03*
X128802944Y-115197056D03*
X130500000Y-111100000D03*
D23*
X130500000Y-113500000D03*
D22*
X130500000Y-115900000D03*
X132197056Y-111802944D03*
X132197056Y-115197056D03*
X132900000Y-113500000D03*
%TD*%
D10*
%TO.C,U17*%
X179500000Y-95850000D03*
X179500000Y-94150000D03*
%TD*%
D29*
%TO.C,Q3*%
X160135000Y-104150000D03*
X160135000Y-102250000D03*
X157865000Y-103200000D03*
%TD*%
M02*
