M48
; DRILL file {KiCad 9.0.7} date 2026-04-17T22:43:25-0700
; FORMAT={-:-/ absolute / inch / decimal}
; #@! TF.CreationDate,2026-04-17T22:43:25-07:00
; #@! TF.GenerationSoftware,Kicad,Pcbnew,9.0.7
; #@! TF.FileFunction,NonPlated,1,2,NPTH
FMAT,2
INCH
; #@! TA.AperFunction,NonPlated,NPTH,ComponentDrill
T1C0.0197
%
G90
G05
T1
X7.1547Y-2.0849
X7.1547Y-2.1183
X7.1547Y-2.1518
X7.1547Y-2.1853
X7.1547Y-2.2187
X7.1547Y-2.2522
X7.1547Y-2.2857
X7.1555Y-2.7646
X7.1555Y-2.7981
X7.1555Y-2.8316
X7.1555Y-2.865
X7.1555Y-2.8985
X7.1555Y-2.932
X7.1555Y-2.9654
X7.1555Y-3.4398
X7.1555Y-3.4733
X7.1555Y-3.5068
X7.1555Y-3.5402
X7.1555Y-3.5737
X7.1555Y-3.6072
X7.1555Y-3.6406
X7.1565Y-4.132
X7.1565Y-4.1655
X7.1565Y-4.199
X7.1565Y-4.2324
X7.1565Y-4.2659
X7.1565Y-4.2994
X7.1565Y-4.3328
X7.2138Y-2.0849
X7.2138Y-2.1183
X7.2138Y-2.1518
X7.2138Y-2.1853
X7.2138Y-2.2187
X7.2138Y-2.2522
X7.2138Y-2.2857
X7.2146Y-2.7646
X7.2146Y-2.7981
X7.2146Y-2.8316
X7.2146Y-2.865
X7.2146Y-2.8985
X7.2146Y-2.932
X7.2146Y-2.9654
X7.2146Y-3.4398
X7.2146Y-3.4733
X7.2146Y-3.5068
X7.2146Y-3.5402
X7.2146Y-3.5737
X7.2146Y-3.6072
X7.2146Y-3.6406
X7.2156Y-4.132
X7.2156Y-4.1655
X7.2156Y-4.199
X7.2156Y-4.2324
X7.2156Y-4.2659
X7.2156Y-4.2994
X7.2156Y-4.3328
M30
