M48
; DRILL file {KiCad 9.0.7} date 2026-04-17T22:43:25-0700
; FORMAT={-:-/ absolute / inch / decimal}
; #@! TF.CreationDate,2026-04-17T22:43:25-07:00
; #@! TF.GenerationSoftware,Kicad,Pcbnew,9.0.7
; #@! TF.FileFunction,Plated,1,2,PTH
FMAT,2
INCH
; #@! TA.AperFunction,Plated,PTH,ViaDrill
T1C0.0118
; #@! TA.AperFunction,Plated,PTH,ComponentDrill
T2C0.0197
; #@! TA.AperFunction,Plated,PTH,ComponentDrill
T3C0.0315
; #@! TA.AperFunction,Plated,PTH,ComponentDrill
T4C0.0354
; #@! TA.AperFunction,Plated,PTH,ComponentDrill
T5C0.0394
; #@! TA.AperFunction,Plated,PTH,ComponentDrill
T6C0.0906
; #@! TA.AperFunction,Plated,PTH,ComponentDrill
T7C0.1260
%
G90
G05
T1
X5.0591Y-2.6811
X5.0689Y-2.5512
X5.0689Y-4.3189
X5.0748Y-3.4035
X5.0807Y-3.185
X5.0846Y-2.9783
X5.0886Y-3.7638
X5.0886Y-3.9587
X5.0925Y-3.5827
X5.1496Y-2.189
X5.1535Y-4.2953
X5.2283Y-2.2913
X5.2441Y-3.7815
X5.2461Y-2.939
X5.252Y-3.4035
X5.252Y-3.5807
X5.252Y-3.9823
X5.2579Y-3.1417
X5.3583Y-2.1201
X5.4035Y-2.4626
X5.4055Y-3.9173
X5.4094Y-3.8543
X5.4488Y-2.3622
X5.4547Y-2.0571
X5.4587Y-2.1043
X5.4921Y-2.7933
X5.5118Y-2.1732
X5.5157Y-2.2421
X5.5276Y-2.378
X5.5413Y-2.561
X5.5551Y-2.6654
X5.5788Y-2.6417
X5.6024Y-2.7972
X5.6083Y-2.4941
X5.622Y-2.3602
X5.6378Y-2.4291
X5.6476Y-2.1594
X5.6496Y-3.2854
X5.6496Y-3.8937
X5.6555Y-2.2894
X5.7106Y-3.9843
X5.7185Y-4.2106
X5.7224Y-3.4547
X5.7283Y-3.9055
X5.7539Y-3.7205
X5.7579Y-3.122
X5.811Y-2.1772
X5.811Y-2.3681
X5.8169Y-2.2854
X5.8524Y-2.3957
X5.8602Y-4.1575
X5.8642Y-2.8209
X5.8642Y-4.2441
X5.8701Y-2.7795
X5.8819Y-3.5236
X5.8839Y-3.7362
X5.8858Y-3.0118
X5.8878Y-2.2815
X5.8898Y-3.126
X5.9016Y-2.8504
X5.9035Y-2.3858
X5.9193Y-2.3386
X5.937Y-4.25
X5.9409Y-2.8937
X5.9508Y-3.1594
X5.9567Y-2.9331
X5.9567Y-3.5394
X5.9606Y-3.0846
X5.9803Y-2.7717
X5.9882Y-2.9843
X5.9921Y-2.4921
X6.0Y-4.5453
X6.0276Y-3.8406
X6.0276Y-4.248
X6.0315Y-2.7992
X6.0472Y-2.4961
X6.0512Y-3.4016
X6.0709Y-2.3346
X6.0807Y-3.8346
X6.0906Y-2.8543
X6.0945Y-3.8976
X6.0984Y-2.5354
X6.1102Y-3.7008
X6.1437Y-4.2972
X6.1457Y-4.5768
X6.1555Y-2.1988
X6.1575Y-2.3346
X6.1634Y-2.8858
X6.1909Y-3.9429
X6.1929Y-2.7106
X6.2205Y-2.5591
X6.2205Y-3.0157
X6.2205Y-4.2992
X6.2441Y-2.1614
X6.2598Y-1.9449
X6.2638Y-2.1299
X6.2756Y-3.4469
X6.2953Y-2.5669
X6.2953Y-4.5374
X6.2972Y-3.5433
X6.3051Y-3.0413
X6.3071Y-2.0
X6.3071Y-2.3701
X6.3071Y-3.6358
X6.3071Y-3.7972
X6.3091Y-3.9252
X6.313Y-4.3366
X6.313Y-4.4665
X6.3169Y-3.9665
X6.3307Y-2.8642
X6.3465Y-2.1417
X6.3622Y-2.6969
X6.3898Y-3.0354
X6.4016Y-3.3898
X6.4173Y-3.565
X6.4508Y-2.6437
X6.4843Y-2.9843
X6.498Y-3.9429
X6.5Y-2.4409
X6.5039Y-1.9409
X6.5079Y-3.687
X6.5079Y-4.126
X6.5079Y-4.2087
X6.5157Y-4.1594
X6.5394Y-3.6535
X6.5433Y-3.9095
X6.5453Y-3.3189
X6.5472Y-3.2028
X6.5492Y-3.374
X6.5492Y-3.4843
X6.5531Y-2.4252
X6.5551Y-2.4921
X6.5669Y-3.8858
X6.5787Y-2.6654
X6.5807Y-3.75
X6.6201Y-2.8051
X6.622Y-3.8799
X6.6378Y-2.378
X6.6437Y-3.7244
X6.6496Y-2.5354
X6.6535Y-2.9744
X6.6594Y-3.2126
X6.6693Y-3.5945
X6.6693Y-3.6594
X6.6732Y-3.0374
X6.6752Y-3.3957
X6.6791Y-3.4803
X6.685Y-3.7736
X6.6969Y-4.2539
X6.6988Y-3.1358
X6.7126Y-4.1457
X6.7185Y-2.9035
X6.7244Y-3.7382
X6.7638Y-2.9744
X6.7638Y-3.0433
X6.7972Y-3.7933
X6.8543Y-4.2736
X6.9055Y-2.8622
X6.9114Y-4.313
X6.9291Y-3.7165
X7.0Y-4.2736
X7.0305Y-2.8455
X7.0965Y-2.4409
X7.0984Y-2.372
X7.1024Y-2.1319
X7.2776Y-2.8001
X7.2776Y-3.4753
X7.2785Y-4.1675
X7.3209Y-2.7874
X7.3209Y-3.4626
X7.3219Y-4.1548
X7.3661Y-3.1032
X7.3661Y-3.7784
X7.3671Y-4.4706
X7.3799Y-2.7942
X7.3799Y-3.4694
X7.3809Y-4.1616
X7.3819Y-2.9871
X7.3819Y-3.6623
X7.3829Y-4.3545
X7.4783Y-2.9851
X7.4783Y-3.6603
X7.4793Y-4.3525
X7.498Y-2.7942
X7.498Y-3.4694
X7.499Y-4.1616
X7.5059Y-3.1032
X7.5059Y-3.7784
X7.5069Y-4.4706
X7.6083Y-2.7627
X7.6083Y-3.4379
X7.6093Y-4.1301
T2
X5.0433Y-2.0276
X5.0433Y-4.4685
X5.071Y-1.9607
X5.071Y-2.0944
X5.071Y-4.4017
X5.071Y-4.5353
X5.1378Y-1.9331
X5.1378Y-2.122
X5.1378Y-4.374
X5.1378Y-4.563
X5.2046Y-1.9607
X5.2046Y-2.0944
X5.2046Y-4.4017
X5.2046Y-4.5353
X5.2323Y-2.0276
X5.2323Y-4.4685
X6.8937Y-2.0276
X6.8937Y-4.4685
X6.9214Y-1.9607
X6.9214Y-2.0944
X6.9214Y-4.4017
X6.9214Y-4.5353
X6.9882Y-1.9331
X6.9882Y-2.122
X6.9882Y-4.374
X6.9882Y-4.563
X7.055Y-1.9607
X7.055Y-2.0944
X7.055Y-4.4017
X7.055Y-4.5353
X7.0827Y-2.0276
X7.0827Y-4.4685
T4
X5.2933Y-4.3248
X5.3799Y-2.4075
X5.5748Y-2.2047
X5.7165Y-2.8228
X5.7362Y-3.8268
X5.7441Y-3.378
X5.7854Y-4.0059
X5.7874Y-4.1201
X5.7953Y-3.4724
X6.2756Y-4.189
X6.5472Y-2.0709
X6.5512Y-3.1142
X6.5551Y-3.5906
X6.622Y-2.6181
X6.6299Y-2.2795
X6.6614Y-1.9291
X6.6693Y-2.0827
X6.6772Y-3.3189
X6.7244Y-3.9587
X6.7657Y-3.8642
X6.9055Y-2.5787
X6.9882Y-2.2126
X7.0098Y-3.8917
X7.063Y-4.2008
X7.297Y-1.9912
X7.3048Y-2.44
X7.4505Y-1.9912
X7.4505Y-2.44
X7.5883Y-1.9912
X7.5903Y-2.44
T5
X5.4803Y-3.0512
X5.4803Y-3.1496
X5.4803Y-3.2283
X5.4803Y-3.3268
X5.4803Y-3.7598
X5.4803Y-3.8583
X5.4803Y-3.937
X5.4803Y-4.0354
X5.5827Y-3.0512
X5.5827Y-3.1496
X5.5827Y-3.2283
X5.5827Y-3.3268
X5.5827Y-3.7598
X5.5827Y-3.8583
X5.5827Y-3.937
X5.5827Y-4.0354
T6
X5.374Y-2.9311
X5.374Y-3.4469
X5.374Y-3.6398
X5.374Y-4.1555
X5.5984Y-2.9311
X5.5984Y-3.4469
X5.5984Y-3.6398
X5.5984Y-4.1555
T7
X5.1378Y-2.0276
X5.1378Y-4.4685
X6.9882Y-2.0276
X6.9882Y-4.4685
T3
G00X5.0915Y-2.4222
M15
G01X5.0679Y-2.4222
M16
G05
G00X5.0915Y-2.7628
M15
G01X5.0679Y-2.7628
M16
G05
G00X5.26Y-2.4222
M15
G01X5.2285Y-2.4222
M16
G05
G00X5.26Y-2.7628
M15
G01X5.2285Y-2.7628
M16
G05
G00X6.4242Y-4.3463
M15
G01X6.4242Y-4.3778
M16
G05
G00X6.4242Y-4.5148
M15
G01X6.4242Y-4.5384
M16
G05
G00X6.7648Y-4.3463
M15
G01X6.7648Y-4.3778
M16
G05
G00X6.7648Y-4.5148
M15
G01X6.7648Y-4.5384
M16
G05
G00X7.2707Y-2.9082
M15
G01X7.2707Y-2.9397
M16
G05
G00X7.2707Y-3.0767
M15
G01X7.2707Y-3.1003
M16
G05
G00X7.2707Y-3.5834
M15
G01X7.2707Y-3.6149
M16
G05
G00X7.2707Y-3.7519
M15
G01X7.2707Y-3.7755
M16
G05
G00X7.2717Y-4.2756
M15
G01X7.2717Y-4.3071
M16
G05
G00X7.2717Y-4.4441
M15
G01X7.2717Y-4.4677
M16
G05
G00X7.6112Y-2.9082
M15
G01X7.6112Y-2.9397
M16
G05
G00X7.6112Y-3.0767
M15
G01X7.6112Y-3.1003
M16
G05
G00X7.6112Y-3.5834
M15
G01X7.6112Y-3.6149
M16
G05
G00X7.6112Y-3.7519
M15
G01X7.6112Y-3.7755
M16
G05
G00X7.6122Y-4.2756
M15
G01X7.6122Y-4.3071
M16
G05
G00X7.6122Y-4.4441
M15
G01X7.6122Y-4.4677
M16
G05
M30
