%TF.GenerationSoftware,KiCad,Pcbnew,9.0.7*%
%TF.CreationDate,2026-04-17T22:43:23-07:00*%
%TF.ProjectId,Light_Jacket_rev0_2,4c696768-745f-44a6-9163-6b65745f7265,rev?*%
%TF.SameCoordinates,Original*%
%TF.FileFunction,Soldermask,Bot*%
%TF.FilePolarity,Negative*%
%FSLAX46Y46*%
G04 Gerber Fmt 4.6, Leading zero omitted, Abs format (unit mm)*
G04 Created by KiCad (PCBNEW 9.0.7) date 2026-04-17 22:43:23*
%MOMM*%
%LPD*%
G01*
G04 APERTURE LIST*
%ADD10C,1.500000*%
%ADD11O,1.200000X2.000000*%
%ADD12O,1.200000X1.800000*%
%ADD13C,0.800000*%
%ADD14C,6.400000*%
%ADD15C,0.500000*%
%ADD16O,2.000000X1.200000*%
%ADD17O,1.800000X1.200000*%
%ADD18R,1.600000X1.600000*%
%ADD19C,1.600000*%
%ADD20C,3.000000*%
G04 APERTURE END LIST*
D10*
%TO.C,TP19*%
X178050000Y-98850000D03*
%TD*%
%TO.C,TP14*%
X166500000Y-91200000D03*
%TD*%
%TO.C,TP29*%
X192792893Y-61976000D03*
%TD*%
%TO.C,TP2*%
X145900000Y-85800000D03*
%TD*%
D11*
%TO.C,USB4*%
X184675000Y-74268000D03*
X193325000Y-74268000D03*
D12*
X193325000Y-78448000D03*
X184675000Y-78448000D03*
%TD*%
D10*
%TO.C,TP22*%
X134450000Y-109850000D03*
%TD*%
%TO.C,TP8*%
X147200000Y-88200000D03*
%TD*%
D11*
%TO.C,USB4*%
X184675000Y-91418000D03*
X193325000Y-91418000D03*
D12*
X193325000Y-95598000D03*
X184675000Y-95598000D03*
%TD*%
D10*
%TO.C,TP26*%
X185542893Y-61976000D03*
%TD*%
%TO.C,TP18*%
X175400000Y-65500000D03*
%TD*%
D11*
%TO.C,USB4*%
X184700000Y-109000000D03*
X193350000Y-109000000D03*
D12*
X193350000Y-113180000D03*
X184700000Y-113180000D03*
%TD*%
D13*
%TO.C,REF\u002A\u002A*%
X175100000Y-51500000D03*
X175802944Y-49802944D03*
X175802944Y-53197056D03*
X177500000Y-49100000D03*
D14*
X177500000Y-51500000D03*
D13*
X177500000Y-53900000D03*
X179197056Y-49802944D03*
X179197056Y-53197056D03*
X179900000Y-51500000D03*
%TD*%
D10*
%TO.C,TP1*%
X145700000Y-97200000D03*
%TD*%
%TO.C,TP9*%
X159400000Y-106400000D03*
%TD*%
%TO.C,TP3*%
X145200000Y-71700000D03*
%TD*%
%TO.C,TP15*%
X141600000Y-56000000D03*
%TD*%
%TO.C,TP4*%
X136650000Y-61150000D03*
%TD*%
%TO.C,TP21*%
X169200000Y-49000000D03*
%TD*%
%TO.C,TP12*%
X169600000Y-84300000D03*
%TD*%
%TO.C,TP20*%
X169400000Y-52900000D03*
%TD*%
%TO.C,TP16*%
X166300000Y-52600000D03*
%TD*%
%TO.C,TP7*%
X146950000Y-101750000D03*
%TD*%
D15*
%TO.C,REF\u002A\u002A*%
X181750000Y-75321750D03*
X183250000Y-75321750D03*
X181750000Y-74471750D03*
X183250000Y-74471750D03*
X181750000Y-73621750D03*
X183250000Y-73621750D03*
X181750000Y-72771750D03*
X183250000Y-72771750D03*
X181750000Y-71921750D03*
X183250000Y-71921750D03*
X181750000Y-71071750D03*
X183250000Y-71071750D03*
X181750000Y-70221750D03*
X183250000Y-70221750D03*
%TD*%
D10*
%TO.C,TP28*%
X177500000Y-56200000D03*
%TD*%
%TO.C,TP10*%
X147000000Y-104650000D03*
%TD*%
D16*
%TO.C,USB5*%
X133203750Y-61525000D03*
X133203750Y-70175000D03*
D17*
X129023750Y-70175000D03*
X129023750Y-61525000D03*
%TD*%
D10*
%TO.C,TP11*%
X171850000Y-98150000D03*
%TD*%
D11*
%TO.C,USB1*%
X163175000Y-110796250D03*
X171825000Y-110796250D03*
D12*
X171825000Y-114976250D03*
X163175000Y-114976250D03*
%TD*%
D10*
%TO.C,TP24*%
X192742893Y-50576000D03*
%TD*%
%TO.C,TP27*%
X185342893Y-50576000D03*
%TD*%
D15*
%TO.C,REF\u002A\u002A*%
X181730393Y-58056000D03*
X183230393Y-58056000D03*
X181730393Y-57206000D03*
X183230393Y-57206000D03*
X181730393Y-56356000D03*
X183230393Y-56356000D03*
X181730393Y-55506000D03*
X183230393Y-55506000D03*
X181730393Y-54656000D03*
X183230393Y-54656000D03*
X181730393Y-53806000D03*
X183230393Y-53806000D03*
X181730393Y-52956000D03*
X183230393Y-52956000D03*
%TD*%
D13*
%TO.C,REF\u002A\u002A*%
X128100000Y-51500000D03*
X128802944Y-49802944D03*
X128802944Y-53197056D03*
X130500000Y-49100000D03*
D14*
X130500000Y-51500000D03*
D13*
X130500000Y-53900000D03*
X132197056Y-49802944D03*
X132197056Y-53197056D03*
X132900000Y-51500000D03*
%TD*%
D10*
%TO.C,TP25*%
X189242893Y-50576000D03*
%TD*%
%TO.C,TP5*%
X168200000Y-66500000D03*
%TD*%
%TO.C,TP30*%
X189242893Y-61976000D03*
%TD*%
D15*
%TO.C,REF\u002A\u002A*%
X181775000Y-110053750D03*
X183275000Y-110053750D03*
X181775000Y-109203750D03*
X183275000Y-109203750D03*
X181775000Y-108353750D03*
X183275000Y-108353750D03*
X181775000Y-107503750D03*
X183275000Y-107503750D03*
X181775000Y-106653750D03*
X183275000Y-106653750D03*
X181775000Y-105803750D03*
X183275000Y-105803750D03*
X181775000Y-104953750D03*
X183275000Y-104953750D03*
%TD*%
D10*
%TO.C,TP6*%
X170800000Y-100550000D03*
%TD*%
%TO.C,TP17*%
X168400000Y-57900000D03*
%TD*%
D13*
%TO.C,REF\u002A\u002A*%
X175100000Y-113500000D03*
X175802944Y-111802944D03*
X175802944Y-115197056D03*
X177500000Y-111100000D03*
D14*
X177500000Y-113500000D03*
D13*
X177500000Y-115900000D03*
X179197056Y-111802944D03*
X179197056Y-115197056D03*
X179900000Y-113500000D03*
%TD*%
D18*
%TO.C,USB3*%
X141800000Y-95500000D03*
D19*
X141800000Y-98000000D03*
X141800000Y-100000000D03*
X141800000Y-102500000D03*
D18*
X139200000Y-95500000D03*
D19*
X139200000Y-98000000D03*
X139200000Y-100000000D03*
X139200000Y-102500000D03*
D20*
X142200000Y-92450000D03*
X142200000Y-105550000D03*
X136500000Y-92450000D03*
X136500000Y-105550000D03*
%TD*%
D18*
%TO.C,USB2*%
X141800000Y-77500000D03*
D19*
X141800000Y-80000000D03*
X141800000Y-82000000D03*
X141800000Y-84500000D03*
D18*
X139200000Y-77500000D03*
D19*
X139200000Y-80000000D03*
X139200000Y-82000000D03*
X139200000Y-84500000D03*
D20*
X142200000Y-74450000D03*
X142200000Y-87550000D03*
X136500000Y-74450000D03*
X136500000Y-87550000D03*
%TD*%
D15*
%TO.C,REF\u002A\u002A*%
X181750000Y-92471750D03*
X183250000Y-92471750D03*
X181750000Y-91621750D03*
X183250000Y-91621750D03*
X181750000Y-90771750D03*
X183250000Y-90771750D03*
X181750000Y-89921750D03*
X183250000Y-89921750D03*
X181750000Y-89071750D03*
X183250000Y-89071750D03*
X181750000Y-88221750D03*
X183250000Y-88221750D03*
X181750000Y-87371750D03*
X183250000Y-87371750D03*
%TD*%
D10*
%TO.C,TP23*%
X179400000Y-106700000D03*
%TD*%
%TO.C,TP13*%
X166400000Y-79100000D03*
%TD*%
D13*
%TO.C,REF\u002A\u002A*%
X128100000Y-113500000D03*
X128802944Y-111802944D03*
X128802944Y-115197056D03*
X130500000Y-111100000D03*
D14*
X130500000Y-113500000D03*
D13*
X130500000Y-115900000D03*
X132197056Y-111802944D03*
X132197056Y-115197056D03*
X132900000Y-113500000D03*
%TD*%
M02*
